<?xml version="1.0" encoding="UTF-8"?>
<!DOCTYPE svg PUBLIC "-//W3C//DTD SVG 1.1//EN" "http://www.w3.org/Graphics/SVG/1.1/DTD/svg11.dtd">
<!-- Creator: CorelDRAW X7 -->
<svg xmlns="http://www.w3.org/2000/svg" xml:space="preserve" width="1000mm" height="707.071mm" version="1.1" style="shape-rendering:geometricPrecision; text-rendering:geometricPrecision; image-rendering:optimizeQuality; fill-rule:evenodd; clip-rule:evenodd"
viewBox="0 0 100000 70707"
 xmlns:xlink="http://www.w3.org/1999/xlink">
 <defs>
  <style type="text/css">
   <![CDATA[
    .fil0 {fill:#00A0E3}
   ]]>
  </style>
 </defs>
 <g id="Layer_x0020_1">
  <metadata id="CorelCorpID_0Corel-Layer"/>
  <g id="_2956038070656">
   <path class="fil0" d="M68824 39756l-1417 0 0 -2432c2162,-517 3627,-2389 3627,-4614 0,-2622 -2145,-4755 -4768,-4755 -895,0 -1741,249 -2461,681l0 -16260c0,-636 -468,-1152 -1105,-1152l-23345 0c-636,0 -1200,516 -1200,1152l0 16260c-721,-432 -1531,-681 -2426,-681 -2622,0 -4767,2133 -4767,4755 0,2225 1573,4097 3590,4614l0 2432 -1321 0c-1986,0 -3602,1616 -3602,3602 0,2054 1672,3603 3890,3603l10400 0 0 -8358c0,-637 564,-1153 1201,-1153l11816 0c637,0 1105,516 1105,1153l0 8358 11072 0c1765,0 3314,-1684 3314,-3603 0,-1986 -1616,-3602 -3603,-3602zm-10639 -19166c-637,0 -1153,-516 -1153,-1153l0 -2449c0,-637 516,-1153 1153,-1153 636,0 1153,516 1153,1153l0 2449c0,637 -517,1153 -1153,1153zm1153 3459l0 2449c0,637 -517,1153 -1153,1153 -637,0 -1153,-516 -1153,-1153l0 -2449c0,-637 516,-1153 1153,-1153 636,0 1153,516 1153,1153zm-27404 19309c0,-715 582,-1297 1297,-1297l4924 0 0 2594 -4636 0c-933,0 -1585,-533 -1585,-1297zm3819 -13097c1350,0 2450,1098 2450,2449 0,1351 -1100,2450 -2450,2450 -1351,0 -2450,-1099 -2450,-2450 0,-1351 1099,-2449 2450,-2449zm2402 6523l0 2972 -1297 0 0 -2432c576,-116 1008,-299 1297,-540zm28147 -6523c1351,0 2450,1098 2450,2449 0,1351 -1099,2450 -2450,2450 -1350,0 -2449,-1099 -2449,-2450 0,-1351 1099,-2449 2449,-2449zm-2497 9495l0 -2972c432,241 864,424 1297,540l0 2432 -1297 0zm0 2305l5019 0c715,0 1297,582 1297,1297 0,741 -612,1297 -1009,1297l-5307 0 0 -2594zm-18878 -8357c0,636 -516,1152 -1152,1152 -637,0 -1153,-516 -1153,-1152l0 -2450c0,-637 516,-1153 1153,-1153 636,0 1152,516 1152,1153l0 2450zm0 -7206c0,637 -516,1153 -1152,1153 -637,0 -1153,-516 -1153,-1153l0 -2449c0,-637 516,-1153 1153,-1153 636,0 1152,516 1152,1153l0 2449zm0 -7061c0,637 -516,1153 -1152,1153 -637,0 -1153,-516 -1153,-1153l0 -2449c0,-637 516,-1153 1153,-1153 636,0 1152,516 1152,1153l0 2449zm4756 14267c0,636 -516,1152 -1153,1152 -637,0 -1153,-516 -1153,-1152l0 -2450c0,-637 516,-1153 1153,-1153 637,0 1153,516 1153,1153l0 2450zm0 -7206c0,637 -516,1153 -1153,1153 -637,0 -1153,-516 -1153,-1153l0 -2449c0,-637 516,-1153 1153,-1153 637,0 1153,516 1153,1153l0 2449zm0 -7061c0,637 -516,1153 -1153,1153 -637,0 -1153,-516 -1153,-1153l0 -2449c0,-637 516,-1153 1153,-1153 637,0 1153,516 1153,1153l0 2449zm4755 14267c0,636 -516,1152 -1153,1152 -636,0 -1153,-516 -1153,-1152l0 -2450c0,-637 517,-1153 1153,-1153 637,0 1153,516 1153,1153l0 2450zm0 -7206c0,637 -516,1153 -1153,1153 -636,0 -1153,-516 -1153,-1153l0 -2449c0,-637 517,-1153 1153,-1153 637,0 1153,516 1153,1153l0 2449zm0 -7061c0,637 -516,1153 -1153,1153 -636,0 -1153,-516 -1153,-1153l0 -2449c0,-637 517,-1153 1153,-1153 637,0 1153,516 1153,1153l0 2449zm2594 14267l0 -2450c0,-637 516,-1153 1153,-1153 636,0 1153,516 1153,1153l0 2450c0,636 -517,1152 -1153,1152 -637,0 -1153,-516 -1153,-1152z"/>
   <path class="fil0" d="M47240 6180l-963 0 -298 -916c-58,-179 -224,-299 -412,-299 -187,0 -353,120 -411,298l-298 917 -963 0c-191,0 -360,125 -415,308 -54,183 17,381 177,486l753 495 -285 826c-61,178 0,376 150,488 152,113 358,114 511,5l777 -558 780 582c77,57 168,85 259,85 89,0 178,-27 253,-82 153,-111 217,-309 157,-488l-289 -860 754 -493c160,-104 232,-302 178,-485 -55,-183 -223,-309 -415,-309z"/>
   <path class="fil0" d="M41837 7045l-964 0 -298 -917c-58,-178 -224,-299 -411,-299 -188,0 -354,121 -412,299l-297 917 -964 0c-191,0 -360,125 -414,308 -55,183 17,380 176,485l753 496 -285 826c-61,178 0,375 150,488 151,112 358,114 511,4l777 -557 780 581c77,57 168,86 259,86 89,0 178,-28 253,-83 153,-111 217,-308 157,-487l-289 -861 754 -492c160,-105 232,-302 178,-485 -55,-184 -223,-309 -414,-309z"/>
   <path class="fil0" d="M58065 6180l-964 0 -298 -916c-58,-179 -224,-299 -411,-299 -188,0 -354,120 -412,298l-297 917 -964 0c-191,0 -360,126 -415,309 -54,183 18,381 178,485l755 492 -289 861c-60,179 3,377 156,488 76,55 165,82 254,82 90,0 181,-29 258,-86l780 -581 778 557c153,110 359,108 510,-4 151,-113 212,-310 150,-488l-285 -826 753 -496c160,-105 232,-302 177,-485 -55,-183 -223,-308 -414,-308z"/>
   <path class="fil0" d="M63883 7353c-55,-183 -224,-308 -415,-308l-963 0 -298 -917c-58,-178 -224,-299 -411,-299 -188,0 -354,121 -412,299l-297 917 -964 0c-191,0 -360,125 -415,309 -54,183 18,380 178,485l755 492 -289 861c-60,179 3,376 156,487 76,55 165,83 254,83 90,0 181,-29 258,-86l780 -581 778 557c153,110 359,108 510,-4 151,-113 212,-310 150,-488l-285 -826 753 -496c160,-105 231,-302 177,-485z"/>
   <path class="fil0" d="M52644 5315l-964 0 -297 -916c-59,-178 -224,-299 -412,-299 -187,0 -353,121 -411,299l-298 916 -964 0c-191,0 -359,126 -414,309 -55,183 17,380 177,485l753 495 -285 827c-62,177 -1,375 150,487 151,113 357,115 510,5l778 -558 780 582c77,57 167,85 258,85 89,0 178,-27 254,-82 153,-111 216,-308 156,-487l-289 -861 755 -493c160,-104 232,-301 178,-485 -55,-183 -223,-309 -415,-309z"/>
   <polygon class="fil0" points="47377,46961 54582,46961 54582,39756 47377,39756 "/>
  </g>
  <g id="_2956038070336">
  </g>
  <g id="_2956038071744">
  </g>
  <g id="_2956038070080">
  </g>
  <g id="_2956038071904">
  </g>
  <g id="_2956038071168">
  </g>
  <g id="_2956038071648">
  </g>
  <g id="_2956038069824">
  </g>
  <g id="_2956038068928">
  </g>
  <g id="_2956038069856">
  </g>
  <g id="_2956038069632">
  </g>
  <g id="_2956038068320">
  </g>
  <g id="_2956038069728">
  </g>
  <g id="_2956038068608">
  </g>
  <g id="_2956038066304">
  </g>
  <g id="_2956038066752">
  </g>
  <path class="fil0" d="M42434 57213c0,111 94,205 205,205 120,0 214,-94 214,-205l0 -5576c0,-112 -94,-206 -214,-206 -111,0 -205,94 -205,206l0 2582 -3079 0 0 -2582c0,-112 -94,-206 -214,-206 -111,0 -205,94 -205,206l0 5576c0,111 94,205 205,205 120,0 214,-94 214,-205l0 -2583 3079 0 0 2583zm2044 -2831l0 0c8,1676 1274,3036 2890,3036l0 0c1600,0 2857,-1360 2865,-3036l0 0c-8,-1676 -1265,-3036 -2865,-3036l0 0c-1616,0 -2882,1360 -2890,3036zm419 0l0 0c0,-1480 1112,-2609 2471,-2609l0 0c1317,0 2429,1129 2438,2609l0 0c-9,1462 -1121,2617 -2438,2617l0 0c-1359,0 -2471,-1155 -2471,-2617zm8193 2831c0,111 94,205 205,205 111,0 205,-94 205,-205l0 -5363 1805 0c111,0 205,-94 205,-213 0,-112 -94,-206 -205,-206l-4020 0c-111,0 -205,94 -205,206 0,119 94,213 205,213l1805 0 0 5363zm3994 0c0,111 85,196 188,205l17 0 26 0 3053 0c119,0 205,-94 205,-205 0,-120 -86,-214 -205,-214l-2865 0 0 -2361 2505 0c112,0 206,-94 206,-205 0,-120 -94,-214 -206,-214l-2505 0 0 -2369 2865 0c119,0 205,-94 205,-213 0,-112 -86,-206 -205,-206l-3062 0 -17 0c-111,0 -205,94 -205,206l0 5576zm8355 205c120,0 214,-94 214,-205 0,-120 -94,-214 -214,-214l-2865 0 0 -5362c0,-112 -94,-206 -214,-206 -111,0 -205,94 -205,206l0 5576c0,111 94,205 205,205l17 0 3062 0z"/>
 </g>
</svg>
