<?xml version="1.0" encoding="UTF-8"?>
<!DOCTYPE svg PUBLIC "-//W3C//DTD SVG 1.1//EN" "http://www.w3.org/Graphics/SVG/1.1/DTD/svg11.dtd">
<!-- Creator: CorelDRAW X7 -->
<svg xmlns="http://www.w3.org/2000/svg" xml:space="preserve" width="100mm" height="70.7071mm" version="1.1" style="shape-rendering:geometricPrecision; text-rendering:geometricPrecision; image-rendering:optimizeQuality; fill-rule:evenodd; clip-rule:evenodd"
viewBox="0 0 10000 7071"
 xmlns:xlink="http://www.w3.org/1999/xlink">
 <defs>
  <style type="text/css">
   <![CDATA[
    .str1 {stroke:#00A0E3;stroke-width:33.67}
    .str0 {stroke:#00A0E3;stroke-width:50.5051}
    .fil1 {fill:none}
    .fil0 {fill:#00A0E3}
   ]]>
  </style>
 </defs>
 <g id="Layer_x0020_1">
  <metadata id="CorelCorpID_0Corel-Layer"/>
  <g id="_2956241543680">
  </g>
  <g id="_2956241544576">
  </g>
  <g id="_2956241545184">
  </g>
  <g id="_2956241545632">
  </g>
  <g id="_2956241543840">
  </g>
  <g id="_2956241543968">
  </g>
  <g id="_2956241542656">
  </g>
  <g id="_2956241542528">
  </g>
  <g id="_2956241542208">
  </g>
  <g id="_2956241543200">
  </g>
  <g id="_2956241542432">
  </g>
  <g id="_2956241541760">
  </g>
  <g id="_2956241540640">
  </g>
  <g id="_2956241540992">
  </g>
  <g id="_2956241540064">
  </g>
  <path class="fil0" d="M4392 6080c0,10 8,18 18,18 11,0 19,-8 19,-18l0 -494c0,-9 -8,-18 -19,-18 -10,0 -18,9 -18,18l0 229 -272 0 0 -229c0,-9 -9,-18 -19,-18 -10,0 -18,9 -18,18l0 494c0,10 8,18 18,18 10,0 19,-8 19,-18l0 -229 272 0 0 229zm181 -251l0 0c1,149 113,269 256,269l0 0c141,0 252,-120 253,-269l0 0c-1,-148 -112,-268 -253,-268l0 0c-143,0 -255,120 -256,268zm37 0l0 0c0,-131 98,-230 219,-230l0 0c116,0 214,99 215,230l0 0c-1,130 -99,232 -215,232l0 0c-121,0 -219,-102 -219,-232zm725 251c0,10 8,18 18,18 10,0 18,-8 18,-18l0 -475 160 0c10,0 18,-8 18,-19 0,-9 -8,-18 -18,-18l-356 0c-10,0 -18,9 -18,18 0,11 8,19 18,19l160 0 0 475zm353 0c0,10 8,17 17,18l1 0 3 0 270 0c10,0 18,-8 18,-18 0,-11 -8,-19 -18,-19l-254 0 0 -209 222 0c10,0 18,-8 18,-18 0,-11 -8,-19 -18,-19l-222 0 0 -210 254 0c10,0 18,-8 18,-19 0,-9 -8,-18 -18,-18l-271 0 -2 0c-10,0 -18,9 -18,18l0 494zm739 18c11,0 19,-8 19,-18 0,-11 -8,-19 -19,-19l-253 0 0 -475c0,-9 -8,-18 -19,-18 -10,0 -18,9 -18,18l0 494c0,10 8,18 18,18l2 0 270 0z"/>
  <g id="_2956241536512">
   <path class="fil1 str0" d="M4001 1177l2433 0c58,0 105,51 105,114l0 3687c0,63 -47,114 -105,114l-866 0c16,0 29,-14 29,-32l0 -856c0,-18 -13,-32 -29,-32l-672 0c-15,0 -28,14 -28,32l0 856c0,18 13,32 28,32l-895 0c-58,0 -105,-51 -105,-114l0 -3687c0,-63 47,-114 105,-114z"/>
   <rect class="fil0 str0" x="5024" y="4422" width="403" height="672" rx="16" ry="20"/>
   <g>
    <rect class="fil1 str0" x="4429" y="1622" width="315" height="427" rx="12" ry="12"/>
    <rect class="fil1 str0" x="5100" y="1623" width="315" height="427" rx="12" ry="12"/>
    <rect class="fil1 str0" x="5797" y="1624" width="315" height="427" rx="12" ry="12"/>
    <rect class="fil1 str0" x="4415" y="2407" width="315" height="427" rx="12" ry="12"/>
    <rect class="fil1 str0" x="5085" y="2408" width="315" height="427" rx="12" ry="12"/>
    <rect class="fil1 str0" x="5783" y="2410" width="315" height="427" rx="12" ry="12"/>
    <rect class="fil1 str0" x="4405" y="3231" width="315" height="427" rx="12" ry="12"/>
    <rect class="fil1 str0" x="5075" y="3232" width="315" height="427" rx="12" ry="12"/>
    <rect class="fil1 str0" x="5773" y="3234" width="315" height="427" rx="12" ry="12"/>
   </g>
   <polygon class="fil1 str1" points="4232,744 4301,863 4439,833 4344,936 4414,1054 4286,999 4191,1101 4207,965 4079,909 4216,880 "/>
   <polygon class="fil1 str1" points="4652,540 4715,676 4867,658 4754,759 4817,895 4684,822 4571,923 4602,777 4469,704 4621,687 "/>
   <polygon class="fil1 str1" points="5207,312 5266,490 5458,490 5302,600 5362,779 5207,668 5051,779 5111,600 4955,490 5147,490 "/>
   <polygon class="fil1 str1" points="6207,734 6138,853 6000,823 6095,926 6025,1045 6153,989 6248,1092 6232,955 6360,900 6222,871 "/>
   <polygon class="fil1 str1" points="5787,530 5724,666 5572,648 5685,750 5622,885 5755,812 5868,914 5837,767 5970,694 5818,677 "/>
  </g>
 </g>
</svg>
