<?xml version="1.0" encoding="UTF-8"?>
<!DOCTYPE svg PUBLIC "-//W3C//DTD SVG 1.1//EN" "http://www.w3.org/Graphics/SVG/1.1/DTD/svg11.dtd">
<!-- Creator: CorelDRAW X7 -->
<svg xmlns="http://www.w3.org/2000/svg" xml:space="preserve" width="1000mm" height="1414.14mm" version="1.1" style="shape-rendering:geometricPrecision; text-rendering:geometricPrecision; image-rendering:optimizeQuality; fill-rule:evenodd; clip-rule:evenodd"
viewBox="0 0 100000 141414"
 xmlns:xlink="http://www.w3.org/1999/xlink">
 <defs>
  <style type="text/css">
   <![CDATA[
    .fil0 {fill:#38B3E7}
   ]]>
  </style>
 </defs>
 <g id="Layer_x0020_1">
  <metadata id="CorelCorpID_0Corel-Layer"/>
  <path class="fil0" d="M81175 113809l-26676 -27207 -14369 20824c-286,307 -1061,1568 -1061,1568 0,0 207,640 418,1144l2718 6550 -3346 7340c-94,-78 -189,-157 -281,-261l-6002 -6611c-727,-868 -512,-1569 -241,-1952 -368,272 -1084,740 -2397,1443 0,0 -3983,2531 -5460,1586l-23 -16c-1456,-932 -849,-5624 -849,-5624 88,-1486 213,-2329 308,-2780 -235,408 -782,898 -1874,601l-8519 -2683c-128,-36 -242,-91 -355,-145l5262 -6112 7089 -276c547,-23 1216,-99 1216,-99 0,0 819,-1234 976,-1622l12889 -21770 -35880 -12827c-966,-345 -1254,-1197 -654,-1902l5077 -5930c610,-708 1907,-1123 2906,-933l37781 7321 14235 -20774c2633,-3831 6867,-6809 9449,-6656 987,56 2001,413 2934,952l26 16c882,622 1629,1392 2093,2265 1223,2284 291,7373 -2084,11369l-12899 21628 22477 31238c591,828 758,2179 369,3029l-3254 7097c-384,846 -1281,941 -1999,209z"/>
 </g>
</svg>
