<?xml version="1.0" encoding="UTF-8"?>
<!DOCTYPE svg PUBLIC "-//W3C//DTD SVG 1.1//EN" "http://www.w3.org/Graphics/SVG/1.1/DTD/svg11.dtd">
<!-- Creator: CorelDRAW X7 -->
<svg xmlns="http://www.w3.org/2000/svg" xml:space="preserve" width="1000mm" height="707.071mm" version="1.1" style="shape-rendering:geometricPrecision; text-rendering:geometricPrecision; image-rendering:optimizeQuality; fill-rule:evenodd; clip-rule:evenodd"
viewBox="0 0 100000 70707"
 xmlns:xlink="http://www.w3.org/1999/xlink">
 <defs>
  <style type="text/css">
   <![CDATA[
    .fil0 {fill:#FEFEFE}
    .fil1 {fill:#00A0E3}
   ]]>
  </style>
 </defs>
 <g id="Layer_x0020_1">
  <metadata id="CorelCorpID_0Corel-Layer"/>
  <g id="_2956181945856">
   <rect class="fil0" x="33429" y="23954" width="41299" height="24364"/>
   <path class="fil1" d="M74032 24095l-39887 -123c-370,-1 -672,269 -673,602l-70 22659c-1,333 299,605 669,606l39888 123c370,1 671,-269 672,-602l70 -22659c1,-333 -299,-605 -669,-606zm-38167 3336l13111 40 -5 1460 -13110 -40 4 -1460zm2507 15980l-699 -2 -6 2015 -776 -2 6 -2016 -701 -2 2 -572 2176 7 -2 572zm1116 2018l-780 -2 8 -2587 780 2 -8 2587zm1876 -530c126,0 250,-15 369,-47 119,-31 239,-69 360,-113l-2 590c-240,95 -511,143 -814,142 -433,-2 -766,-116 -996,-343 -230,-228 -344,-555 -343,-983 1,-269 57,-503 170,-706 112,-203 274,-358 484,-466 211,-108 458,-163 743,-162 310,1 606,62 888,185l-239 549c-106,-45 -212,-83 -318,-114 -106,-31 -220,-46 -341,-47 -185,0 -329,68 -433,204 -104,136 -156,323 -157,563 -1,497 208,747 629,748zm3671 547l-876 -3 -564 -990 -231 123 -2 865 -780 -2 8 -2587 780 2 -4 1124c39,-69 119,-180 239,-330l605 -791 849 3 -909 1156 885 1430zm1953 -2020l-929 -3 -2 408 860 2 -1 561 -860 -3 -2 489 929 3 -2 569 -1705 -5 8 -2587 1705 5 -1 561zm2400 19l-699 -2 -7 2015 -775 -2 6 -2016 -701 -2 1 -572 2176 7 -1 572zm4940 -6395l-18492 -57 4 -1459 18492 57 -4 1459zm13 -4152l-18492 -57 4 -1460 18492 57 -4 1460zm17775 5382l-6005 -1400 -155 4092c-13,66 -9,306 -9,306 0,0 84,69 156,120l940 659 180 1293c-19,-3 -39,-5 -61,-12l-1394 -382c-174,-55 -206,-169 -202,-245 -27,69 -84,195 -202,405 0,0 -324,691 -608,691l-5 -1c-279,-1 -604,-694 -604,-694 -117,-211 -173,-337 -199,-407 3,77 -29,191 -204,245l-1396 373c-21,7 -41,9 -61,11l188 -1291 944 -653c73,-51 157,-120 157,-120 0,0 5,-239 -7,-306l-129 -4092 -6015 1363c-161,36 -275,-55 -254,-204l179 -1250c22,-150 163,-319 316,-380l5796 -2280 140 -4073c28,-752 347,-1526 713,-1729 140,-78 310,-118 484,-125l5 0c174,8 343,49 482,128 365,206 680,982 702,1733l116 4074 5782 2316c153,62 293,232 313,382l172 1251c21,149 -93,240 -255,202zm-38321 -13935l40558 125 -73 23867 -40558 -126 73 -23866z"/>
  </g>
  <g id="_2956181946048">
   <rect class="fil0" x="27433" y="15975" width="41299" height="24364"/>
   <path class="fil1" d="M68036 16116l-39888 -123c-370,-1 -671,268 -672,602l-70 22658c-1,334 299,605 669,606l39888 123c370,1 671,-268 672,-601l70 -22659c1,-333 -299,-605 -669,-606zm-38167 3336l13111 40 -5 1460 -13110 -41 4 -1459zm2507 15979l-699 -2 -6 2016 -776 -2 6 -2016 -701 -2 2 -572 2176 6 -2 572zm1116 2019l-780 -3 8 -2586 779 2 -7 2587zm1875 -530c127,0 250,-16 370,-47 119,-31 239,-69 360,-114l-2 591c-240,95 -511,142 -814,141 -433,-1 -766,-115 -996,-343 -230,-227 -344,-555 -343,-983 1,-268 57,-503 170,-706 112,-202 274,-357 484,-466 211,-108 458,-162 742,-161 311,0 607,62 889,185l-239 549c-106,-45 -212,-83 -318,-114 -106,-32 -220,-47 -341,-47 -185,-1 -329,68 -433,204 -104,135 -156,323 -157,562 -1,498 208,747 628,749zm3672 547l-876 -3 -565 -991 -230 123 -3 866 -779 -3 8 -2586 780 2 -4 1124c39,-69 119,-180 239,-330l605 -791 848 2 -908 1156 885 1431zm1952 -2020l-928 -3 -2 407 860 3 -1 561 -860 -3 -2 488 929 3 -2 570 -1705 -5 8 -2587 1705 5 -2 561zm2401 18l-699 -2 -7 2016 -775 -3 6 -2015 -701 -2 1 -572 2176 7 -1 571zm4940 -6394l-18492 -57 4 -1460 18492 57 -4 1460zm13 -4152l-18492 -57 4 -1460 18492 57 -4 1460zm17775 5382l-6006 -1400 -154 4091c-13,67 -9,307 -9,307 0,0 84,69 156,120l940 658 180 1293c-20,-2 -39,-5 -61,-11l-1394 -382c-174,-55 -206,-170 -202,-246 -27,70 -84,196 -202,406 0,0 -324,691 -608,690l-5 0c-279,-1 -604,-694 -604,-694 -117,-211 -173,-337 -199,-407 3,76 -29,191 -204,245l-1396 373c-21,6 -41,9 -61,11l188 -1292 944 -653c73,-50 157,-119 157,-119 0,0 5,-239 -7,-306l-129 -4093 -6015 1363c-161,37 -275,-54 -254,-203l179 -1250c21,-150 162,-320 316,-380l5795 -2280 141 -4073c28,-752 347,-1526 713,-1730 140,-78 310,-117 484,-124l5 0c174,8 343,48 482,127 365,206 680,982 702,1734l116 4074 5782 2316c152,61 293,231 313,381l172 1252c21,149 -93,240 -255,202zm-38321 -13935l40558 125 -73 23866 -40558 -125 73 -23866z"/>
  </g>
  <g id="_2956181945056">
   <rect class="fil0" x="20442" y="9742" width="41299" height="24364"/>
   <path class="fil1" d="M61046 9884l-39888 -123c-370,-1 -671,268 -672,602l-70 22658c-1,334 298,605 668,606l39888 123c370,1 671,-268 672,-602l70 -22658c1,-333 -298,-605 -668,-606zm-38167 3335l13110 41 -4 1460 -13111 -41 5 -1460zm2506 15980l-699 -2 -6 2016 -776 -3 7 -2015 -702 -2 2 -572 2176 6 -2 572zm1116 2019l-780 -3 8 -2587 780 3 -8 2587zm1876 -530c127,0 250,-16 369,-47 120,-31 240,-69 360,-114l-2 591c-240,95 -511,142 -814,141 -433,-1 -765,-116 -996,-343 -230,-227 -344,-555 -343,-983 1,-268 57,-503 170,-706 113,-202 274,-358 484,-466 211,-108 459,-163 743,-162 310,1 607,63 889,185l-240 550c-105,-45 -212,-83 -317,-115 -106,-31 -220,-46 -342,-46 -185,-1 -329,68 -433,204 -104,135 -156,323 -157,562 -1,498 208,747 629,749zm3671 547l-876 -3 -564 -991 -230 123 -3 865 -780 -2 8 -2587 780 3 -3 1124c39,-69 119,-180 238,-331l606 -790 848 2 -909 1156 885 1431zm1953 -2020l-929 -3 -1 407 860 3 -2 561 -860 -3 -1 488 928 3 -1 570 -1705 -6 8 -2586 1705 5 -2 561zm2400 18l-699 -2 -6 2016 -776 -3 6 -2015 -701 -2 2 -572 2176 6 -2 572zm4940 -6394l-18492 -57 5 -1460 18492 57 -5 1460zm13 -4152l-18492 -58 5 -1459 18492 57 -5 1460zm17775 5382l-6005 -1400 -155 4091c-13,67 -9,306 -9,306 0,0 84,70 157,121l939 658 181 1293c-20,-2 -40,-5 -61,-11l-1394 -382c-175,-55 -206,-170 -203,-246 -26,69 -83,195 -202,405 0,0 -324,692 -608,691l-4 0c-280,-1 -604,-695 -604,-695 -117,-210 -173,-336 -200,-406 4,76 -29,191 -204,245l-1396 373c-21,6 -41,8 -61,11l188 -1292 944 -653c73,-51 158,-119 158,-119 0,0 5,-240 -8,-306l-129 -4093 -6014 1363c-162,37 -276,-55 -255,-203l179 -1251c22,-149 163,-319 316,-379l5796 -2280 141 -4073c27,-752 347,-1526 713,-1730 139,-78 309,-117 483,-124l5 0c175,8 343,48 482,127 366,206 680,982 703,1734l116 4074 5781 2315c153,62 293,232 314,382l171 1252c21,149 -93,240 -255,202zm-38320 -13935l40558 125 -74 23866 -40558 -125 74 -23866z"/>
  </g>
  <path class="fil1" d="M37983 58183c0,103 86,190 189,190 103,0 189,-87 189,-190l0 -4948 1665 0c103,0 190,-86 190,-197 0,-102 -87,-189 -190,-189l-3708 0c-103,0 -190,87 -190,189 0,111 87,197 190,197l1665 0 0 4948zm3740 0l0 0c0,103 87,190 189,190l0 0c111,0 198,-87 198,-190l0 -5145 0 0c0,-102 -87,-189 -198,-189l0 0c-102,0 -189,87 -189,189l0 5145zm2107 -2596l0 0c0,1539 1286,2786 2872,2786l0 0c679,0 1302,-229 1784,-600l0 0c87,-63 102,-205 23,-276l0 0c-55,-95 -181,-111 -276,-48l0 0c-410,348 -947,537 -1531,537l0 0c-1381,0 -2485,-1081 -2485,-2399l0 0c0,-1349 1104,-2430 2485,-2430l0 0c584,0 1121,205 1547,536l0 0c79,63 205,55 268,-39l0 0c71,-71 56,-205 -31,-276l0 0c-482,-371 -1105,-608 -1784,-608l0 0c-1586,8 -2872,1247 -2872,2817zm6329 2596c0,103 87,190 189,190 111,0 197,-87 197,-190l0 -1381 1216 -1215 2138 2715c40,55 87,71 142,71 48,0 87,-8 126,-40 79,-79 95,-189 32,-276l-2162 -2746 2115 -2115c79,-79 79,-205 0,-276 -63,-71 -190,-71 -269,0l-3338 3338 0 -3196c0,-111 -86,-197 -197,-197 -102,0 -189,86 -189,197l0 5121zm5642 0c0,103 79,182 174,190l15 0 24 0 2817 0c111,0 190,-87 190,-190 0,-110 -79,-197 -190,-197l-2643 0 0 -2178 2312 0c102,0 189,-87 189,-189 0,-111 -87,-198 -189,-198l-2312 0 0 -2186 2643 0c111,0 190,-86 190,-197 0,-102 -79,-189 -190,-189l-2825 0 -16 0c-102,0 -189,87 -189,189l0 5145zm6108 0c0,103 86,190 189,190 103,0 189,-87 189,-190l0 -4948 1665 0c103,0 190,-86 190,-197 0,-102 -87,-189 -190,-189l-3708 0c-103,0 -190,87 -190,189 0,111 87,197 190,197l1665 0 0 4948z"/>
 </g>
</svg>
