<?xml version="1.0" encoding="utf-8"?>
<!-- Generator: Adobe Illustrator 16.0.0, SVG Export Plug-In . SVG Version: 6.00 Build 0)  -->
<!DOCTYPE svg PUBLIC "-//W3C//DTD SVG 1.1//EN" "http://www.w3.org/Graphics/SVG/1.1/DTD/svg11.dtd">
<svg version="1.1" id="Layer_1" xmlns="http://www.w3.org/2000/svg" xmlns:xlink="http://www.w3.org/1999/xlink" x="0px" y="0px"
	 width="358px" height="110px" viewBox="0 0 358 110" enable-background="new 0 0 358 110" xml:space="preserve">
<g>
	<path fill="#BE2739" d="M339.83,25.47H216.769c-9.51-14.002-25.561-23.202-43.762-23.202s-34.253,9.2-43.762,23.202H16.758
		c-7.137,0-12.923,5.235-12.923,11.693v37.998c0,6.457,5.786,11.692,12.923,11.692h113.956C140.358,99.693,155.712,108,173.007,108
		s32.647-8.307,42.293-21.146h124.53c7.137,0,12.922-5.235,12.922-11.692V37.163C352.752,30.705,346.967,25.47,339.83,25.47z"/>
	<g>
		<g>
			<g>
				<g>
					<defs>
						<rect id="SVGID_1_" x="133.319" y="28.647" width="71.538" height="57.25"/>
					</defs>
					<clipPath id="SVGID_2_">
						<use xlink:href="#SVGID_1_"  overflow="visible"/>
					</clipPath>
				</g>
			</g>
			<g>
				<g>
					<defs>
						<rect id="SVGID_3_" x="157.176" y="75.605" width="9.843" height="7.215"/>
					</defs>
					<clipPath id="SVGID_4_">
						<use xlink:href="#SVGID_3_"  overflow="visible"/>
					</clipPath>
				</g>
			</g>
			<g>
				<g>
					<defs>
						<rect id="SVGID_5_" x="184.7" y="75.605" width="9.844" height="7.215"/>
					</defs>
					<clipPath id="SVGID_6_">
						<use xlink:href="#SVGID_5_"  overflow="visible"/>
					</clipPath>
				</g>
			</g>
		</g>
		<g>
			<g>
				<path fill="#9DA0A2" d="M189.745,35.644c1.027-0.729,1.833-2.033,2.766-2.953c-1.543,0.289-1.338-2.961-0.268-3.428
					c1.641-0.717,2.517,1.448,1.637,2.863c0.835-0.358,2.636,0.539,2.412,1.936c-0.194,1.215-2.146,1.158-2.74,0.203
					c-1.598,0.913-3.943,2.334-4.766,4.363L189.745,35.644z"/>
				<path fill="#CA7435" d="M179.043,42.907c-0.236-3.502,1.591-6.577,3.749-8.477c1.754-1.541,4.246-1.123,6.441-0.5
					c1.174,0.33,1.904,0.932,2.469,2.284c-0.777,0.791-0.283,3.128-0.512,4.331c-0.604,3.172-3.072,4.408-5.691,4.453
					L179.043,42.907z"/>
				<path fill="#B34F30" d="M187.523,36.172c1.266,0.13,3.501,1.741,3.636,3.503c0.164,2.178-3.365,1.74-4.551,1.879
					c-1.046,0.121-2.086,0.324-3.105,0.565c-0.748,0.177-1.934,1.181-2.738,0.599c-0.989-0.713-0.533-2.598,0.023-3.318
					C182.271,37.487,185.222,35.935,187.523,36.172z"/>
				<path fill="#CA7435" d="M172.619,49.123c0.366-2.096,1.115-4.098,2.136-4.886c0.93-0.717,2.085-1.105,3.035-1.862
					c4.075-3.242,10.047-7.669,15.223-1.235c2.018,2.506,4.626,7.751,3.866,11.089c-0.583,2.545-1.85,4.974-3.337,6.64
					c-1.233,1.386-3.594,1.386-5.249,1.769c-2.917,0.676-7.425,1.689-10.597,0.061c-2.402-1.234-4.752-3.973-5.236-7.374
					C172.293,52.148,172.359,50.611,172.619,49.123z"/>
				<path fill="#B34F30" d="M189.645,50.754c-0.97-3.308,0.493-12.413,4.664-8.655c-2.389,2.434-3.321,5.474-4.625,8.787
					L189.645,50.754z"/>
				<path fill="#B34F30" d="M175.263,53.996c-2.223-1.812,0.539-5.801,1.546-6.882c0.577-0.617,2.114-2.142,1.661-0.014
					c-0.299,1.401-0.652,2.837-1.076,4.183C177.11,52.185,176.248,54.799,175.263,53.996z"/>
				<path fill="#B34F30" d="M173.935,56.357c2.409,1.944,2.931,2.019,5.422,2.436c1.061,0.176,2.275,0.797,3.327,0.662
					c2.005-0.252,4.261-2.774,5.106-4.808c0.476-1.146,0.584-2.505,1.052-3.643c0.734,2.063,1.064,2.789,2.511,4.204
					c1.073,1.05,2.136,1.801,3.238,2.775c-0.797,2.282-3.628,2.713-5.494,2.975c-2.451,0.345-4.597,0.751-7.09,0.863
					c-0.57,0.024-2.033-0.367-2.268,0.038c-1.475-0.888-7.008-3.524-6.355-6.209c1.11,0.39,1.559,1.757,2.567,2.106L173.935,56.357z
					"/>
				<path fill="#9DA0A2" d="M196.999,41.626c1.104-0.701,1.671-2.336,2.763-2.941c-1.259-0.61-1.8-2.492-0.722-3.48
					c1.032-0.946,2.377,0.715,1.808,2.02c0.943-0.213,2.826,0.604,2.547,2.105c-0.252,1.365-1.925,1.086-2.746,0.288
					c-0.765,1.621-2.547,2.729-3.602,4.129L196.999,41.626z"/>
				<path fill="#CA7435" d="M196.228,40.288c2.907-0.554,3.72,5.295,3.995,7.503c0.379,3.063-0.033,5.834-1.341,8.295
					c-1.053,1.977-3.414,3.869-5.648,3.076c-2.779-0.987-4.756-6.388-4.992-9.395c-0.264-3.359,1.945-5.997,4.062-7.546
					C193.497,41.345,194.787,40.563,196.228,40.288z"/>
			</g>
			<g>
				<path fill="#9DA0A2" d="M174.378,31.692c2.166-0.492,3.912-2.472,6.012-2.84c-1.767-1.352-1.721-4.125,0.547-5.016
					c2.168-0.855,3.552,1.956,1.965,3.489c1.66,0.101,4.354,1.992,3.146,3.913c-1.098,1.746-3.709,0.671-4.662-0.752
					c-2.065,1.881-5.552,2.639-7.982,4.097L174.378,31.692z"/>
				<path fill="#CA7435" d="M173.775,29.554c5.062,0.461,3.483,8.73,2.837,11.838c-0.899,4.311-2.956,7.896-6.332,10.685
					c-2.717,2.244-7.549,3.828-10.827,1.823c-4.083-2.497-4.645-10.64-3.536-14.816c1.238-4.664,6.187-7.318,10.439-8.539
					C168.76,29.854,171.272,29.328,173.775,29.554z"/>
				<path fill="#B34F30" d="M156.843,43.813c0.05-4.891,6.991-16.627,11.984-9.795c-5.143,2.305-8.189,6.038-11.987,9.988
					L156.843,43.813z"/>
			</g>
			<g>
				<path fill="#9DA0A2" d="M162.25,43.27c-0.688-0.76-0.104-1.731-0.314-2.637c1.485-0.433,4.603-1.323,3.394-2.767
					c-0.926-1.104-4.979,0.041-4.389,2.017c-0.657-0.41-3.777-0.431-4.695,0.901c-1.097,1.59,2.78,0.637,3.58,0.678
					c-0.529,1.456-0.571,3.047,0.269,3.898L162.25,43.27z"/>
				<path fill="#8A3528" d="M155.345,61.03c-1.371-4.097-3.377-7.998,0.173-13.82c2.042-3.346,4.761-5.547,7.807-4.321
					c3.113,1.249,5.046,3.719,6.5,6.345c0.645,1.167,1.027,2.45,1.701,3.585c0.732,1.236,1.252,2.697,0.766,4.518L155.345,61.03z"/>
				<path fill="#F37674" d="M156.799,50.482c-6.059,5.025-1.83,10.951,0.792,13.057c1.78,1.432,4.37,2.738,7.932,1.757
					c2.08-0.573,4.704-2.286,5.899-4.163c2.776-4.359,0.438-6.768-1.266-9.184c-1.449-2.055-3.921-4.24-7.522-4.085
					C160.796,47.942,158.579,49.004,156.799,50.482z"/>
				<path fill="#F59091" d="M155.993,53.539c1.157-3.342,5.771-4.209,7.921-3.564c2.587,0.778,4.793,2.281,6.198,4.143
					c1.161,1.541,2.501,4.846-0.783,7.56c-1.081,0.893-3.58,2.329-4.834,2.739c-2.965,0.969-5.654-1.541-6.418-3.113
					C157.028,59.143,154.884,56.742,155.993,53.539z"/>
				<path fill="#FFFFFF" d="M162.829,58.59c-0.862,0.979-0.637,1.703,0.256,1.865c1.143,0.209,3.438-1.371,3.334-2.49
					C166.298,56.691,163.954,57.319,162.829,58.59z"/>
			</g>
			<g opacity="0.5">
				<g>
					<defs>
						<rect id="SVGID_7_" x="133.319" y="28.647" width="71.538" height="57.25"/>
					</defs>
					<clipPath id="SVGID_8_">
						<use xlink:href="#SVGID_7_"  overflow="visible"/>
					</clipPath>
					<path clip-path="url(#SVGID_8_)" d="M201.892,40.326l-50.646-4.888c-0.334-0.031-0.657-0.004-0.964,0.063l-5.885-4.899
						c-0.303-0.253-0.685-0.393-1.079-0.393h-3.968c-0.183-0.299-0.413-0.574-0.697-0.811c-1.379-1.15-3.43-0.962-4.579,0.418
						c-1.148,1.379-0.962,3.432,0.417,4.58c1.38,1.148,3.431,0.963,4.58-0.418c0.104-0.125,0.193-0.258,0.276-0.393h2.747
						c0.396,0,0.778,0.14,1.082,0.392l4.662,3.884c-0.148,0.512-0.19,1.072-0.09,1.646l4.362,25.133
						c0.286,1.641,1.632,2.833,3.204,2.833h4.01l-3.953,5.007c-0.811,0.95-0.455,2.814,1.517,2.814h39.875
						c0.688,0,1.245-0.561,1.245-1.248c0-0.689-0.558-1.248-1.245-1.248h-37.022c-0.72,0-1.208-0.471-0.571-1.365l2.876-3.96h33.283
						c1.407,0,2.654-0.96,3.093-2.379l6.271-20.245C205.346,42.737,203.979,40.526,201.892,40.326 M153.04,45.784l-1.062-6.115
						l1.062,0.102V45.784z M158.032,63.331h-1.948l-0.548-3.163v-2.357h2.496V63.331z M158.032,55.314h-2.496v-5.848h2.496V55.314z
						 M158.032,46.972h-2.496v-6.961l2.496,0.243V46.972z M163.022,63.331h-2.495v-5.521h2.495V63.331z M163.022,55.314h-2.495
						v-5.848h2.495V55.314z M163.022,46.972h-2.495v-6.479l2.495,0.241V46.972z M168.015,63.331h-2.494v-5.521h2.494V63.331z
						 M168.015,55.314h-2.494v-5.848h2.494V55.314z M168.015,46.972h-2.494v-5.996l2.494,0.241V46.972z M173.007,63.331h-2.496
						v-5.521h2.496V63.331z M173.007,55.314h-2.496v-5.848h2.496V55.314z M173.007,46.972h-2.496v-5.514l2.496,0.24V46.972z
						 M177.998,63.331h-2.496v-5.521h2.496V63.331z M177.998,55.314h-2.496v-5.848h2.496V55.314z M177.998,46.972h-2.496v-5.033
						l2.496,0.241V46.972z M182.991,63.331h-2.496v-5.521h2.496V63.331z M182.991,55.314h-2.496v-5.848h2.496V55.314z
						 M182.991,46.972h-2.496v-4.551l2.496,0.24V46.972z M187.982,63.331h-2.497v-5.521h2.497V63.331z M187.982,55.314h-2.497
						v-5.848h2.497V55.314z M187.982,46.972h-2.497v-4.068l2.497,0.241V46.972z M192.976,63.331h-2.497v-5.521h2.497V63.331z
						 M192.976,55.314h-2.497v-5.848h2.497V55.314z M192.976,46.972h-2.497v-3.588l2.497,0.242V46.972z M195.47,60.623v-2.813h0.872
						L195.47,60.623z M197.114,55.314h-1.645v-5.848h3.456L197.114,55.314z M199.698,46.972h-4.229v-3.104l5.041,0.484
						L199.698,46.972z"/>
					<path clip-path="url(#SVGID_8_)" d="M162.097,76.051c-2.718,0-4.921,2.205-4.921,4.923c0,2.719,2.203,4.924,4.921,4.924
						c2.721,0,4.922-2.205,4.922-4.924C167.019,78.256,164.817,76.051,162.097,76.051 M162.097,82.82
						c-1.018,0-1.845-0.827-1.845-1.847c0-1.019,0.827-1.846,1.845-1.846c1.021,0,1.85,0.827,1.85,1.846
						C163.946,81.993,163.118,82.82,162.097,82.82"/>
					<path clip-path="url(#SVGID_8_)" d="M189.623,76.051c-2.72,0-4.923,2.205-4.923,4.923c0,2.719,2.203,4.924,4.923,4.924
						c2.717,0,4.921-2.205,4.921-4.924C194.544,78.256,192.34,76.051,189.623,76.051 M189.623,82.82
						c-1.02,0-1.847-0.827-1.847-1.847c0-1.019,0.827-1.846,1.847-1.846c1.019,0,1.847,0.827,1.847,1.846
						C191.47,81.993,190.642,82.82,189.623,82.82"/>
				</g>
			</g>
			<g>
				<path fill="#FFFFFF" d="M201.892,39.878l-50.646-4.889c-0.334-0.029-0.657-0.003-0.964,0.066l-5.885-4.901
					c-0.303-0.253-0.685-0.391-1.079-0.391h-3.968c-0.183-0.299-0.413-0.575-0.697-0.81c-1.379-1.15-3.43-0.963-4.579,0.416
					c-1.148,1.379-0.962,3.432,0.417,4.579c1.38,1.151,3.431,0.964,4.58-0.416c0.104-0.124,0.193-0.259,0.276-0.392h2.747
					c0.396,0,0.778,0.139,1.082,0.389l4.662,3.885c-0.148,0.514-0.19,1.072-0.09,1.646l4.362,25.134
					c0.286,1.641,1.632,2.832,3.204,2.832h4.01l-3.953,5.007c-0.811,0.95-0.455,2.813,1.517,2.813h39.875
					c0.688,0,1.245-0.56,1.245-1.249c0-0.688-0.558-1.248-1.245-1.248h-37.022c-0.72,0-1.208-0.471-0.571-1.364l2.876-3.959h33.283
					c1.407,0,2.654-0.96,3.093-2.379l6.271-20.245C205.346,42.29,203.979,40.081,201.892,39.878 M153.04,45.337l-1.062-6.115
					l1.062,0.103V45.337z M158.032,62.885h-1.948l-0.548-3.166v-2.355h2.496V62.885z M158.032,54.867h-2.496v-5.846h2.496V54.867z
					 M158.032,46.524h-2.496v-6.959l2.496,0.24V46.524z M163.022,62.885h-2.495v-5.521h2.495V62.885z M163.022,54.867h-2.495v-5.846
					h2.495V54.867z M163.022,46.524h-2.495v-6.477l2.495,0.24V46.524z M168.015,62.885h-2.494v-5.521h2.494V62.885z M168.015,54.867
					h-2.494v-5.846h2.494V54.867z M168.015,46.524h-2.494v-5.995l2.494,0.241V46.524z M173.007,62.885h-2.496v-5.521h2.496V62.885z
					 M173.007,54.867h-2.496v-5.846h2.496V54.867z M173.007,46.524h-2.496v-5.514l2.496,0.24V46.524z M177.998,62.885h-2.496v-5.521
					h2.496V62.885z M177.998,54.867h-2.496v-5.846h2.496V54.867z M177.998,46.524h-2.496v-5.031l2.496,0.24V46.524z M182.991,62.885
					h-2.496v-5.521h2.496V62.885z M182.991,54.867h-2.496v-5.846h2.496V54.867z M182.991,46.524h-2.496v-4.551l2.496,0.24V46.524z
					 M187.982,62.885h-2.497v-5.521h2.497V62.885z M187.982,54.867h-2.497v-5.846h2.497V54.867z M187.982,46.524h-2.497v-4.068
					l2.497,0.24V46.524z M192.976,62.885h-2.497v-5.521h2.497V62.885z M192.976,54.867h-2.497v-5.846h2.497V54.867z M192.976,46.524
					h-2.497v-3.588l2.497,0.241V46.524z M195.47,60.176v-2.813h0.872L195.47,60.176z M197.114,54.867h-1.645v-5.846h3.456
					L197.114,54.867z M199.698,46.524h-4.229v-3.105l5.041,0.487L199.698,46.524z"/>
				<path fill="#FFFFFF" d="M162.097,75.605c-2.718,0-4.921,2.203-4.921,4.921c0,2.72,2.203,4.923,4.921,4.923
					c2.721,0,4.922-2.203,4.922-4.923C167.019,77.809,164.817,75.605,162.097,75.605 M162.097,82.373
					c-1.018,0-1.845-0.827-1.845-1.847s0.827-1.846,1.845-1.846c1.021,0,1.85,0.826,1.85,1.846S163.118,82.373,162.097,82.373"/>
				<path fill="#FFFFFF" d="M189.623,75.605c-2.72,0-4.923,2.203-4.923,4.921c0,2.72,2.203,4.923,4.923,4.923
					c2.717,0,4.921-2.203,4.921-4.923C194.544,77.809,192.34,75.605,189.623,75.605 M189.623,82.373
					c-1.02,0-1.847-0.827-1.847-1.847s0.827-1.846,1.847-1.846c1.019,0,1.847,0.826,1.847,1.846S190.642,82.373,189.623,82.373"/>
			</g>
			<g>
				<g>
					<defs>
						<rect id="SVGID_9_" x="157.176" y="75.605" width="9.843" height="7.215"/>
					</defs>
					<clipPath id="SVGID_10_">
						<use xlink:href="#SVGID_9_"  overflow="visible"/>
					</clipPath>
					<path clip-path="url(#SVGID_10_)" fill="#FFFFFF" d="M162.097,76.051c2.646,0,4.801,2.085,4.917,4.7
						c0.005-0.074,0.005-0.149,0.005-0.225c0-2.718-2.201-4.921-4.922-4.921c-2.718,0-4.921,2.203-4.921,4.921
						c0,0.075,0.003,0.15,0.007,0.225C157.299,78.136,159.455,76.051,162.097,76.051"/>
					<path clip-path="url(#SVGID_10_)" fill="#FFFFFF" d="M162.097,82.82c1.021,0,1.85-0.827,1.85-1.847
						c0-0.075-0.008-0.15-0.017-0.223c-0.11,0.913-0.887,1.622-1.833,1.622c-0.942,0-1.72-0.709-1.829-1.622
						c-0.011,0.072-0.016,0.147-0.016,0.223C160.252,81.993,161.079,82.82,162.097,82.82"/>
				</g>
			</g>
			<g>
				<g>
					<defs>
						<rect id="SVGID_11_" x="184.7" y="75.605" width="9.844" height="7.215"/>
					</defs>
					<clipPath id="SVGID_12_">
						<use xlink:href="#SVGID_11_"  overflow="visible"/>
					</clipPath>
					<path clip-path="url(#SVGID_12_)" fill="#FFFFFF" d="M189.623,76.051c2.642,0,4.799,2.085,4.915,4.7
						c0.003-0.074,0.006-0.149,0.006-0.225c0-2.718-2.204-4.921-4.921-4.921c-2.72,0-4.923,2.203-4.923,4.921
						c0,0.075,0,0.15,0.005,0.225C184.823,78.136,186.979,76.051,189.623,76.051"/>
					<path clip-path="url(#SVGID_12_)" fill="#FFFFFF" d="M189.623,82.82c1.019,0,1.847-0.827,1.847-1.847
						c0-0.075-0.006-0.15-0.017-0.223c-0.109,0.913-0.886,1.622-1.83,1.622c-0.946,0-1.722-0.709-1.833-1.622
						c-0.009,0.072-0.014,0.147-0.014,0.223C187.776,81.993,188.604,82.82,189.623,82.82"/>
				</g>
			</g>
			<rect x="180.495" y="48.573" fill="#48798B" width="2.496" height="0.448"/>
			<rect x="180.495" y="56.917" fill="#48798B" width="2.496" height="0.446"/>
			<polygon fill="#48798B" points="180.495,41.525 180.495,41.974 182.991,42.214 182.991,41.769 			"/>
			<polygon fill="#48798B" points="175.502,41.046 175.502,41.493 177.998,41.733 177.998,41.286 			"/>
			<rect x="175.503" y="56.917" fill="#48798B" width="2.495" height="0.446"/>
			<polygon fill="#48798B" points="185.485,42.009 185.485,42.456 187.982,42.696 187.982,42.249 			"/>
			<rect x="175.503" y="48.573" fill="#48798B" width="2.495" height="0.448"/>
			<polygon fill="#48798B" points="190.479,42.489 190.479,42.937 192.976,43.178 192.976,42.731 			"/>
			<rect x="190.479" y="56.917" fill="#48798B" width="2.497" height="0.446"/>
			<polygon fill="#48798B" points="195.47,42.972 195.47,43.419 200.376,43.892 200.511,43.456 			"/>
			<polygon fill="#48798B" points="195.47,48.573 195.47,49.021 198.788,49.021 198.926,48.573 			"/>
			<rect x="185.485" y="56.917" fill="#48798B" width="2.497" height="0.446"/>
			<rect x="185.485" y="48.573" fill="#48798B" width="2.497" height="0.448"/>
			<rect x="170.511" y="56.917" fill="#48798B" width="2.496" height="0.446"/>
			<rect x="190.479" y="48.573" fill="#48798B" width="2.497" height="0.448"/>
			<polygon fill="#48798B" points="195.47,56.917 195.47,57.363 196.204,57.363 196.342,56.917 			"/>
			<path fill="#48798B" d="M147.837,36.967l-4.662-3.883c-0.304-0.253-0.687-0.39-1.082-0.39h-2.747
				c-0.083,0.135-0.172,0.266-0.276,0.391c-1.149,1.381-3.2,1.568-4.58,0.42c-0.708-0.592-1.1-1.42-1.161-2.271
				c-0.066,1.003,0.33,2.024,1.161,2.716c1.38,1.151,3.431,0.964,4.58-0.416c0.104-0.124,0.193-0.259,0.276-0.392h2.747
				c0.395,0,0.778,0.139,1.082,0.389l4.575,3.813C147.774,37.216,147.802,37.091,147.837,36.967"/>
			<polygon fill="#48798B" points="151.978,38.776 152.058,39.229 153.039,39.324 153.039,38.877 			"/>
			<polygon fill="#48798B" points="155.537,39.118 155.537,39.564 158.032,39.806 158.032,39.357 			"/>
			<rect x="155.537" y="56.917" fill="#48798B" width="2.496" height="0.446"/>
			<rect x="155.537" y="48.573" fill="#48798B" width="2.496" height="0.448"/>
			<path fill="#48798B" d="M204.691,43.954l-6.271,20.248c-0.438,1.418-1.686,2.376-3.093,2.376h-33.283l-2.591,3.57
				c-0.404,0.541-0.555,1.144-0.542,1.336c0.044-0.147,0.125-0.314,0.256-0.498l2.876-3.959h33.283c1.407,0,2.654-0.96,3.093-2.379
				l6.271-20.245c0.135-0.435,0.18-0.871,0.155-1.295C204.829,43.391,204.781,43.674,204.691,43.954"/>
			<path fill="#48798B" d="M196.761,74.399h-39.874c-1.208,0-1.782-0.396-1.904-1.013c0.033,0.465,0.461,1.461,1.904,1.461h39.874
				c0.688,0,1.246-0.56,1.246-1.249c0-0.075-0.007-0.149-0.019-0.223C197.882,73.957,197.372,74.399,196.761,74.399"/>
			<path fill="#48798B" d="M158.97,67.027l0.353-0.449h-4.01c-1.572,0-2.919-1.191-3.204-2.83l-4.361-25.134
				c-0.024-0.138-0.039-0.273-0.046-0.408c-0.019,0.277-0.004,0.563,0.046,0.855l4.361,25.134c0.285,1.641,1.632,2.832,3.204,2.832
				H158.97z"/>
			<polygon fill="#48798B" points="170.511,40.563 170.511,41.011 173.007,41.251 173.007,40.804 			"/>
			<rect x="165.521" y="48.573" fill="#48798B" width="2.494" height="0.448"/>
			<rect x="165.521" y="56.917" fill="#48798B" width="2.494" height="0.446"/>
			<rect x="170.511" y="48.573" fill="#48798B" width="2.496" height="0.448"/>
			<polygon fill="#48798B" points="160.527,39.601 160.527,40.048 163.022,40.288 163.022,39.841 			"/>
			<rect x="160.527" y="48.573" fill="#48798B" width="2.495" height="0.448"/>
			<polygon fill="#48798B" points="165.521,40.081 165.521,40.529 168.015,40.771 168.015,40.322 			"/>
			<rect x="160.527" y="56.917" fill="#48798B" width="2.495" height="0.446"/>
			<path fill="#48798B" d="M162.097,78.234c-1.018,0-1.845,0.827-1.845,1.846c0,0.076,0.005,0.15,0.016,0.224
				c0.109-0.913,0.887-1.623,1.829-1.623c0.946,0,1.723,0.71,1.833,1.623c0.009-0.073,0.017-0.147,0.017-0.224
				C163.946,79.062,163.118,78.234,162.097,78.234"/>
			<path fill="#48798B" d="M162.097,85.002c-2.642,0-4.797-2.083-4.914-4.698c-0.004,0.074-0.007,0.147-0.007,0.223
				c0,2.72,2.203,4.923,4.921,4.923c2.721,0,4.922-2.203,4.922-4.923c0-0.075,0-0.148-0.005-0.223
				C166.897,82.919,164.743,85.002,162.097,85.002"/>
			<path fill="#48798B" d="M189.623,78.234c-1.02,0-1.847,0.827-1.847,1.846c0,0.076,0.005,0.15,0.014,0.224
				c0.111-0.913,0.887-1.623,1.833-1.623c0.944,0,1.721,0.71,1.83,1.623c0.011-0.073,0.017-0.147,0.017-0.224
				C191.47,79.062,190.642,78.234,189.623,78.234"/>
			<path fill="#48798B" d="M189.623,85.002c-2.645,0-4.8-2.083-4.918-4.698c-0.005,0.074-0.005,0.147-0.005,0.223
				c0,2.72,2.203,4.923,4.923,4.923c2.717,0,4.921-2.203,4.921-4.923c0-0.075-0.003-0.148-0.006-0.223
				C194.422,82.919,192.265,85.002,189.623,85.002"/>
		</g>
		<g>
			<g>
				<g>
					<defs>
						<rect id="SVGID_13_" x="133.319" y="28.647" width="71.538" height="57.25"/>
					</defs>
					<clipPath id="SVGID_14_">
						<use xlink:href="#SVGID_13_"  overflow="visible"/>
					</clipPath>
				</g>
			</g>
			<g>
				<g>
					<defs>
						<rect id="SVGID_15_" x="157.176" y="75.605" width="9.843" height="7.215"/>
					</defs>
					<clipPath id="SVGID_16_">
						<use xlink:href="#SVGID_15_"  overflow="visible"/>
					</clipPath>
				</g>
			</g>
			<g>
				<g>
					<defs>
						<rect id="SVGID_17_" x="184.7" y="75.605" width="9.844" height="7.215"/>
					</defs>
					<clipPath id="SVGID_18_">
						<use xlink:href="#SVGID_17_"  overflow="visible"/>
					</clipPath>
				</g>
			</g>
		</g>
	</g>
	<g>
		<g>
			<path fill="#FFFFFF" d="M232.49,61.25h8.217c0.227,0.983,0.637,1.688,1.233,2.12c0.595,0.429,1.483,0.645,2.661,0.645
				c0.988,0,1.766-0.175,2.332-0.524c0.565-0.352,0.848-0.832,0.848-1.447c0-0.983-1.185-1.781-3.555-2.397
				c-0.477-0.124-0.839-0.216-1.09-0.274c-1.94-0.516-3.485-0.986-4.635-1.412c-1.149-0.424-1.986-0.82-2.509-1.188
				c-1.011-0.752-1.772-1.648-2.279-2.693c-0.504-1.044-0.759-2.236-0.759-3.574c0-2.691,0.981-4.806,2.948-6.345
				c1.963-1.534,4.668-2.303,8.108-2.303c3.38,0,6.044,0.734,7.985,2.203c1.942,1.469,3.037,3.575,3.286,6.313h-8.02
				c-0.133-0.797-0.473-1.395-1.026-1.787c-0.556-0.393-1.345-0.591-2.367-0.591c-0.905,0-1.579,0.154-2.02,0.462
				c-0.441,0.307-0.66,0.773-0.66,1.398c0,0.9,1.155,1.648,3.463,2.25c0.205,0.063,0.359,0.106,0.467,0.129
				c0.332,0.087,0.839,0.215,1.52,0.39c3.058,0.798,5.061,1.521,6,2.175c1.167,0.799,2.018,1.706,2.554,2.726
				c0.537,1.022,0.805,2.226,0.805,3.614c0,3-1.016,5.303-3.047,6.914c-2.028,1.609-4.938,2.414-8.725,2.414
				c-3.489,0-6.255-0.805-8.298-2.414C233.889,66.441,232.74,64.174,232.49,61.25z"/>
			<path fill="#FFFFFF" d="M257.214,69.711l9.25-27.153h8.558l9.252,27.153h-8.378l-0.982-3.594h-8.377l-1.018,3.594H257.214z
				 M268.072,60.42h5.306l-2.627-9.401L268.072,60.42z"/>
			<path fill="#FFFFFF" d="M286.685,69.711V42.558h8.448v19.945h11.486v7.208H286.685z"/>
			<path fill="#FFFFFF" d="M310.067,69.711V42.558h21.024v6.508h-12.577v3.612h10.632v6.23h-10.632v4.205h13.092v6.598H310.067z"/>
		</g>
	</g>
	<g>
		<g>
			<path fill="#F2AF63" d="M27.777,69.73h-7.245V41.438h9.75l3.452,14.116c0.046,0.191,0.135,0.631,0.272,1.314
				c0.135,0.688,0.327,1.632,0.575,2.835c0.158-0.946,0.304-1.775,0.44-2.489c0.135-0.709,0.253-1.243,0.354-1.602l3.538-14.175
				h9.733V69.73h-7.246l0.069-13.924c0-0.846,0.002-1.672,0.007-2.471c0.006-0.798,0.016-1.628,0.027-2.486
				c-0.272,1.459-0.599,3.055-0.984,4.781l-0.05,0.251l-3.08,13.849h-5.586l-3.114-13.54c-0.147-0.616-0.294-1.321-0.44-2.114
				c-0.146-0.792-0.339-1.868-0.576-3.227c0.035,1.217,0.059,2.26,0.076,3.13c0.017,0.872,0.026,1.57,0.026,2.095V69.73z"/>
			<path fill="#F2AF63" d="M53.353,69.73V41.438h19.921v6.78H61.358v3.764h10.074v6.492H61.358v4.382h12.408v6.874H53.353z"/>
			<path fill="#F2AF63" d="M75.049,69.73l8.77-28.292h8.107l8.768,28.292h-7.938l-0.93-3.744h-7.94L82.92,69.73H75.049z
				 M85.341,60.049h5.028l-2.488-9.795L85.341,60.049z"/>
			<path fill="#F2AF63" d="M106.991,69.73v-20.84h-7.177v-7.452h22.359v7.452h-7.176v20.84H106.991z"/>
		</g>
		<g>
			<path fill="#F2AF63" d="M27.777,69.73h-7.245V41.438h9.75l3.452,14.116c0.046,0.191,0.135,0.631,0.272,1.314
				c0.135,0.688,0.327,1.632,0.575,2.835c0.158-0.946,0.304-1.775,0.44-2.489c0.135-0.709,0.253-1.243,0.354-1.602l3.538-14.175
				h9.733V69.73h-7.246l0.069-13.924c0-0.846,0.002-1.672,0.007-2.471c0.006-0.798,0.016-1.628,0.027-2.486
				c-0.272,1.459-0.599,3.055-0.984,4.781l-0.05,0.251l-3.08,13.849h-5.586l-3.114-13.54c-0.147-0.616-0.294-1.321-0.44-2.114
				c-0.146-0.792-0.339-1.868-0.576-3.227c0.035,1.217,0.059,2.26,0.076,3.13c0.017,0.872,0.026,1.57,0.026,2.095V69.73z"/>
			<path fill="#F2AF63" d="M53.353,69.73V41.438h19.921v6.78H61.358v3.764h10.074v6.492H61.358v4.382h12.408v6.874H53.353z"/>
			<path fill="#F2AF63" d="M75.049,69.73l8.77-28.292h8.107l8.768,28.292h-7.938l-0.93-3.744h-7.94L82.92,69.73H75.049z
				 M85.341,60.049h5.028l-2.488-9.795L85.341,60.049z"/>
			<path fill="#F2AF63" d="M106.991,69.73v-20.84h-7.177v-7.452h22.359v7.452h-7.176v20.84H106.991z"/>
		</g>
	</g>
</g>
</svg>
