<?xml version="1.0" encoding="utf-8"?>
<!-- Generator: Adobe Illustrator 16.0.0, SVG Export Plug-In . SVG Version: 6.00 Build 0)  -->
<!DOCTYPE svg PUBLIC "-//W3C//DTD SVG 1.1//EN" "http://www.w3.org/Graphics/SVG/1.1/DTD/svg11.dtd">
<svg version="1.1" id="Layer_1" xmlns="http://www.w3.org/2000/svg" xmlns:xlink="http://www.w3.org/1999/xlink" x="0px" y="0px"
	 width="1368px" height="720px" viewBox="0 0 1368 720" enable-background="new 0 0 1368 720" xml:space="preserve">
<g>
	<polygon fill="#904415" points="360.12,432.76 475.188,268.275 544.37,344.518 598.022,289.453 688.382,386.167 752.623,321.927 
		825.335,381.932 899.458,274.629 1015.938,434.877 	"/>
	<g>
		<defs>
			<path id="XMLID_10_" d="M315.12,435.358c-3.763,5.837-5.955,12.782-5.955,20.243c0,20.665,16.751,37.417,37.417,37.417h671.061
				c20.666,0,37.418-16.752,37.418-37.417c0-7.461-2.193-14.406-5.955-20.243H315.12z"/>
		</defs>
		<use xlink:href="#XMLID_10_"  overflow="visible" fill="#8F4414"/>
		<clipPath id="XMLID_2_">
			<use xlink:href="#XMLID_10_"  overflow="visible"/>
		</clipPath>
		<ellipse clip-path="url(#XMLID_2_)" fill="#6F3030" cx="403.935" cy="477.685" rx="13.188" ry="7.975"/>
		<ellipse clip-path="url(#XMLID_2_)" fill="#6F3030" cx="430.925" cy="471.778" rx="9.508" ry="5.749"/>
		<ellipse clip-path="url(#XMLID_2_)" fill="#6F3030" cx="637.029" cy="492.405" rx="13.188" ry="7.975"/>
		<ellipse clip-path="url(#XMLID_2_)" fill="#6F3030" cx="662.791" cy="484.045" rx="9.508" ry="5.75"/>
		<ellipse clip-path="url(#XMLID_2_)" fill="#6F3030" cx="622" cy="475.901" rx="6.748" ry="4.079"/>
		<ellipse clip-path="url(#XMLID_2_)" fill="#6F3030" cx="540.111" cy="472.776" rx="13.188" ry="7.974"/>
		<ellipse clip-path="url(#XMLID_2_)" fill="#6F3030" cx="567.1" cy="466.87" rx="9.508" ry="5.749"/>
		<ellipse clip-path="url(#XMLID_2_)" fill="#6F3030" cx="516.802" cy="458.282" rx="9.508" ry="5.75"/>
		<ellipse clip-path="url(#XMLID_2_)" fill="#6F3030" cx="774.738" cy="469.018" rx="6.133" ry="5.442"/>
		<ellipse clip-path="url(#XMLID_2_)" fill="#6F3030" cx="971.946" cy="475.766" rx="18.096" ry="10.962"/>
		<path clip-path="url(#XMLID_2_)" fill="#6F3030" d="M889.442,457.361c0,6.056-8.1,10.965-18.094,10.965
			c-9.996,0-18.096-4.909-18.096-10.965c0-6.053,8.1-10.961,18.096-10.961C881.343,446.4,889.442,451.309,889.442,457.361z"/>
		<ellipse clip-path="url(#XMLID_2_)" fill="#6F3030" cx="889.137" cy="473.871" rx="8.895" ry="5.388"/>
		<ellipse clip-path="url(#XMLID_2_)" fill="#6F3030" cx="356.704" cy="454.242" rx="8.894" ry="5.39"/>
	</g>
	<g>
		<path fill="#72B62B" d="M630.251,436.289c-9.915-71.914-65.089-126.951-131.67-126.951s-121.756,55.037-131.669,126.951H630.251z"
			/>
		<path opacity="0.2" fill="#FFD021" d="M496.716,436.289V309.364c-65.743,1.017-119.981,55.688-129.803,126.925H496.716z"/>
	</g>
	<g>
		<path fill="#438934" d="M1003.364,434.877c-5.729-41.543-37.601-73.338-76.063-73.338c-38.464,0-70.335,31.795-76.062,73.338
			H1003.364z"/>
	</g>
	<g>
		<path fill="#438934" d="M700.563,436.289c-7.103-51.52-46.629-90.948-94.33-90.948c-47.699,0-87.226,39.429-94.328,90.948H700.563
			z"/>
		<path opacity="0.2" fill="#FFD021" d="M604.899,436.289v-90.93c-47.099,0.729-85.955,39.895-92.992,90.93H604.899z"/>
	</g>
	<g>
		<g>
			<defs>
				<path id="XMLID_9_" d="M600.519,436.289c-7.683-55.718-50.431-98.361-102.018-98.361s-94.334,42.644-102.017,98.361H600.519z"/>
			</defs>
			<use xlink:href="#XMLID_9_"  overflow="visible" fill="#F9B213"/>
			<clipPath id="XMLID_3_">
				<use xlink:href="#XMLID_9_"  overflow="visible"/>
			</clipPath>
			<path clip-path="url(#XMLID_3_)" fill="#F69F18" d="M489.483,333.167c0,0,81.007,16.833,99.009,113.833h-23.296
				C565.196,447,567.313,380.818,489.483,333.167z"/>
			<path clip-path="url(#XMLID_3_)" fill="#F69F18" d="M450.304,335.167c0,0,81.007,16.833,99.009,113.833h-23.296
				C526.017,449,528.134,382.817,450.304,335.167z"/>
			<path clip-path="url(#XMLID_3_)" fill="#F69F18" d="M405.83,335.167c0,0,81.007,16.833,99.008,113.833h-23.296
				C481.542,449,483.66,382.817,405.83,335.167z"/>
			<path clip-path="url(#XMLID_3_)" fill="#F69F18" d="M360.297,335.167c0,0,81.007,16.833,99.008,113.833h-23.296
				C436.009,449,438.127,382.817,360.297,335.167z"/>
		</g>
		<path opacity="0.3" fill="#FFD021" d="M497.057,436.289v-98.34c-50.938,0.787-92.96,43.145-100.57,98.34H497.057z"/>
	</g>
	<g>
		<g>
			<defs>
				<path id="XMLID_12_" d="M954.193,451.113c-4.981-36.142-32.711-63.801-66.172-63.801c-33.463,0-61.189,27.659-66.173,63.801
					H954.193z"/>
			</defs>
			<use xlink:href="#XMLID_12_"  overflow="visible" fill="#F69F18"/>
			<clipPath id="XMLID_5_">
				<use xlink:href="#XMLID_12_"  overflow="visible"/>
			</clipPath>
			<path clip-path="url(#XMLID_5_)" fill="#EF7D1A" d="M882.172,383.162c0,0,52.546,13.838,64.221,73.838h-15.11
				C931.282,457,932.656,414.072,882.172,383.162z"/>
			<path clip-path="url(#XMLID_5_)" fill="#EF7D1A" d="M856.758,384.162c0,0,52.546,13.838,64.221,73.838h-15.11
				C905.868,458,907.242,415.071,856.758,384.162z"/>
			<path clip-path="url(#XMLID_5_)" fill="#EF7D1A" d="M827.908,384.162c0,0,52.546,13.838,64.224,73.838H877.02
				C877.02,458,878.393,415.071,827.908,384.162z"/>
			<path clip-path="url(#XMLID_5_)" fill="#EF7D1A" d="M798.374,384.162c0,0,52.546,13.838,64.223,73.838h-15.111
				C847.485,458,848.858,415.071,798.374,384.162z"/>
		</g>
	</g>
	<g>
		<circle fill="#FFD021" cx="802.921" cy="298.102" r="23.825"/>
		<circle fill="#F9B213" cx="802.921" cy="298.102" r="15.354"/>
	</g>
	<g>
		<g>
			<defs>
				<polygon id="XMLID_4_" points="436,427 386,427 386,345.984 410.389,320.336 436,345.984 				"/>
			</defs>
			<use xlink:href="#XMLID_4_"  overflow="visible" fill="#EA5448"/>
			<clipPath id="XMLID_6_">
				<use xlink:href="#XMLID_4_"  overflow="visible"/>
			</clipPath>
			<rect x="373" y="412" opacity="0.5" clip-path="url(#XMLID_6_)" fill="#8F4414" width="75" height="48"/>
			<rect x="383" y="389" clip-path="url(#XMLID_6_)" fill="#8F4414" width="10" height="8"/>
			<rect x="423" y="381" clip-path="url(#XMLID_6_)" fill="#8F4414" width="10" height="6"/>
			<rect x="383" y="363" clip-path="url(#XMLID_6_)" fill="#8F4414" width="10" height="5"/>
			<rect x="430" y="355" clip-path="url(#XMLID_6_)" fill="#8F4414" width="10" height="8"/>
		</g>
		<g>
			<path fill="#6F3030" d="M418.662,427.817v-17.099c0-4.385-3.555-7.939-7.938-7.939c-4.385,0-7.94,3.555-7.94,7.939v17.099
				H418.662z"/>
			<path fill="#FFFFFF" d="M403.776,427.817v-17.099c0-3.831,3.115-6.947,6.947-6.947c3.831,0,6.946,3.116,6.946,6.947v17.099h1.985
				v-17.099c0-4.925-4.006-8.932-8.931-8.932c-4.925,0-8.932,4.007-8.932,8.932v17.099H403.776z"/>
		</g>
		<circle fill="#6F3030" stroke="#FFFFFF" stroke-width="1.9847" stroke-miterlimit="10" cx="410.722" cy="380.794" r="7.939"/>
		<circle fill="#6F3030" stroke="#FFFFFF" stroke-width="1.9847" stroke-miterlimit="10" cx="410.722" cy="352.702" r="7.939"/>
		<g>
			<g>
				<polygon fill="#FFFFFF" points="413.93,321.488 408.735,323.68 387.495,284.925 400.998,279.229 				"/>
				<polygon fill="#FFFFFF" points="408.242,319.605 410.432,324.798 371.679,346.039 365.982,332.537 				"/>
				<polygon fill="#FFFFFF" points="409.174,324.718 414.368,322.527 435.608,361.281 422.106,366.975 				"/>
				<polygon fill="#FFFFFF" points="411.472,324.359 409.279,319.168 448.035,297.927 453.729,311.428 				"/>
			</g>
			<circle fill="#EA5448" cx="410.656" cy="321.394" r="4.227"/>
		</g>
	</g>
	<path fill="#FFFFFF" d="M832.841,318.398c0.279-1.787-0.058-3.65-0.977-5.221c-1.032-1.764-2.743-3.082-4.715-3.625
		c-0.699-0.094-1.398-0.188-2.098-0.281c-0.233,0-0.458,0.025-0.687,0.045c0-3.451-2.879-6.33-6.331-6.33
		c-3.451,0-6.331,2.879-6.331,6.331c0,0.758,0.146,1.484,0.397,2.163c-1.446,0.039-2.842,0.633-3.867,1.657
		c-1.062,1.063-1.665,2.521-1.665,4.022c0,0.426,0.057,0.837,0.146,1.238H832.841z"/>
	<path fill="#FFFFFF" d="M1000.656,331.437c0.932-1.772,1.44-3.761,1.44-5.792c0-3.293-1.324-6.473-3.649-8.799
		c-2.326-2.326-5.52-3.65-8.812-3.65c-0.985,0-1.959,0.133-2.905,0.361c-0.531-0.589-1.087-1.148-1.691-1.645
		c-2.753-2.256-6.217-3.133-9.479-1.223c-2.645,1.55-4.456,5.19-3.84,8.334c-0.218-0.023-0.438-0.043-0.658-0.043
		c-2.21,0-4.293,1.197-5.409,3.103c-0.566,0.976-0.852,2.03-0.855,3.161c0.003,0.485,0.065,0.955,0.17,1.412
		c-0.102-0.005-0.198-0.119-0.304-0.119c-3.411,0-5.245,2.562-5.521,4.899H1000.656z"/>
	<path fill="#FFFFFF" d="M716.609,319.756c-0.562-2.039-1.926-3.809-3.75-4.877c-0.753-0.441-1.617-0.764-2.513-0.952
		c-1.374-0.333-2.75-0.319-4.125,0.05c-0.337,0.094-0.666,0.216-0.987,0.353c-0.396-1.288-1.101-2.477-2.066-3.44
		c-1.552-1.553-3.683-2.436-5.877-2.436c-2.197,0-4.326,0.883-5.879,2.436c-0.929,0.929-1.614,2.068-2.017,3.303
		c-0.448-0.09-0.927-0.139-1.44-0.139c-3.715,0-5.573,2.945-5.573,5.892h34.269C716.636,319.881,716.627,319.818,716.609,319.756z"
		/>
	<path fill="#FFFFFF" d="M925.609,343.366c0.503-1.081,0.779-2.265,0.779-3.473c0-2.183-0.877-4.301-2.42-5.844
		c-0.871-0.87-1.928-1.521-3.074-1.929c-0.006-0.025-0.009-0.051-0.016-0.076c-0.401-1.432-1.125-2.676-2.174-3.73
		c-2.132-2.133-5.317-2.977-8.228-2.176c-2.473,0.682-4.524,2.5-5.527,4.834c-1.386-0.927-3.03-1.438-4.716-1.438
		c-2.235,0-4.405,0.898-5.986,2.479c-0.924,0.926-1.608,2.057-2.023,3.281c-0.25-0.106-0.5-0.212-0.751-0.318
		c-1.315-0.352-2.629-0.352-3.941,0c-2.493,0.687-4.494,2.688-5.181,5.18c-0.29,1.059-0.321,2.153-0.14,3.21H925.609z"/>
	<path fill="#FFFFFF" d="M617.988,285.372c-0.457-2.417-1.628-4.673-3.383-6.429c-2.295-2.296-5.446-3.602-8.693-3.602
		c-3.193,0-6.287,1.268-8.571,3.49c-0.507-0.81-1.096-1.572-1.779-2.256c-2.389-2.389-5.667-3.748-9.048-3.748
		c-2.153,0-4.263,0.557-6.13,1.574c-0.229-0.77-0.578-1.504-1.05-2.199c-1.597-2.725-4.237-4.764-7.286-5.603
		c-3.146-0.865-6.577-0.42-9.393,1.229c-2.725,1.596-4.765,4.238-5.602,7.286c-0.074,0.266-0.124,0.537-0.178,0.807
		c-0.151-0.008-0.299-0.023-0.451-0.023c-5.251,0-9.642,4.271-9.866,9.474H617.988z"/>
	<g>
		<g>
			<polygon fill="#EA5448" points="675.223,427.568 675.223,397.192 636.186,379.764 637.104,427.568 			"/>
			
				<line fill="none" stroke="#FFFFFF" stroke-width="4.2356" stroke-linecap="round" stroke-miterlimit="10" x1="636.186" y1="377.771" x2="679.207" y2="399.682"/>
		</g>
		<g>
			<polygon fill="#B95517" points="639.954,353.884 639.823,325 621.745,325 			"/>
			
				<line fill="none" stroke="#FFFFFF" stroke-width="5" stroke-linecap="round" stroke-miterlimit="10" x1="618" y1="326.5" x2="640" y2="326.5"/>
			<polygon fill="#B95517" points="539.297,353.884 539.426,325 557.505,325 			"/>
			
				<line fill="none" stroke="#FFFFFF" stroke-width="5" stroke-linecap="round" stroke-miterlimit="10" x1="563" y1="326.5" x2="538" y2="326.5"/>
		</g>
		<g>
			<defs>
				<polygon id="XMLID_11_" points="623.202,328.881 589.208,305.564 554.59,328.881 538,362.62 538,427 589.376,427 639,427 
					639,362.62 				"/>
			</defs>
			<use xlink:href="#XMLID_11_"  overflow="visible" fill="#8F4414"/>
			<clipPath id="XMLID_7_">
				<use xlink:href="#XMLID_11_"  overflow="visible"/>
			</clipPath>
			<rect x="549" y="301" clip-path="url(#XMLID_7_)" fill="#B95517" width="6" height="141"/>
			<rect x="563" y="301" clip-path="url(#XMLID_7_)" fill="#B95517" width="7" height="141"/>
			<rect x="576" y="301" clip-path="url(#XMLID_7_)" fill="#B95517" width="10" height="141"/>
			<rect x="593" y="301" clip-path="url(#XMLID_7_)" fill="#B95517" width="7" height="141"/>
			<rect x="607" y="301" clip-path="url(#XMLID_7_)" fill="#B95517" width="7" height="141"/>
			<rect x="624" y="301" clip-path="url(#XMLID_7_)" fill="#B95517" width="7" height="141"/>
		</g>
		<polyline fill="none" stroke="#FFFFFF" stroke-width="5.2945" stroke-linecap="round" stroke-miterlimit="10" points="
			532.5,369.199 555.213,328.881 589.376,305.564 623.538,328.881 646.749,369.697 		"/>
		<g>
			<rect x="563" y="376" fill="#FFFFFF" width="55" height="51"/>
			<rect x="568" y="381" fill="#6F3030" width="43" height="41"/>
			<rect x="588" y="379" fill="#FFFFFF" width="5" height="44"/>
			
				<line fill="none" stroke="#FFFFFF" stroke-width="2.9879" stroke-miterlimit="10" x1="567.007" y1="395.148" x2="613.113" y2="394.991"/>
			
				<line fill="none" stroke="#FFFFFF" stroke-width="2.9879" stroke-miterlimit="10" x1="567.007" y1="409.974" x2="613.113" y2="409.816"/>
		</g>
		<rect x="582" y="342" fill="#6F3030" stroke="#FFFFFF" stroke-width="4" stroke-miterlimit="10" width="16" height="15"/>
		<g>
			<rect x="648.852" y="406.92" fill="#FFFFFF" width="15.884" height="20.648"/>
			<rect x="651.764" y="410.361" fill="#6F3030" width="10.06" height="13.766"/>
		</g>
		
			<line fill="none" stroke="#FFFFFF" stroke-width="1.8554" stroke-miterlimit="10" x1="580.773" y1="350.674" x2="598.553" y2="350.518"/>
	</g>
	<g>
		<g>
			<polyline fill="none" stroke="#6F3030" stroke-width="3" stroke-linecap="round" stroke-miterlimit="10" points="461.5,402 
				461.5,388.267 458.588,384.465 			"/>
			<path fill="#2796D2" d="M499.473,401.578c-1.279,0-2.598-1.17-2.928-2.602l-3.356-14.772h-21.43l-3.722,14.167
				c-0.39,1.416-1.909,2.605-3.379,2.641l-10.846,0.33c-3.971,0-5.506,2.253-5.506,5.894v10.966c0,1.471,1.202,2.674,2.672,2.674
				h40.809c1.47,0,3.818-0.363,5.22-0.807l2.245-0.712c1.402-0.443,2.548-2.009,2.548-3.478v-11.627
				C501.799,402.781,500.752,401.578,499.473,401.578z"/>
			<g>
				<g>
					<path fill="#2B252C" d="M484.436,422.239l-1.417,0.657c-0.717-1.545-1.078-3.197-1.077-4.94l1.561-0.005
						c0.004-1.633,0.398-3.174,1.088-4.537l-1.395-0.707c0.759-1.5,1.859-2.846,3.179-3.891l0.972,1.224
						c1.212-0.961,2.647-1.653,4.219-1.979l-0.317-1.528c1.646-0.342,3.387-0.323,5.022,0.055l-0.351,1.521
						c1.561,0.359,2.985,1.076,4.179,2.065l0.996-1.2c1.297,1.074,2.367,2.441,3.094,3.957l-1.406,0.676
						c0.636,1.324,0.993,2.811,0.993,4.378c0,0.06-0.004,0.118-0.005,0.178l1.562,0.026c-0.029,1.711-0.421,3.357-1.163,4.891
						l-1.405-0.68c-0.689,1.423-1.703,2.658-2.943,3.614l0.956,1.237c-1.356,1.045-2.886,1.768-4.55,2.143l-0.345-1.525
						c-0.723,0.165-1.473,0.254-2.245,0.254c-0.832,0-1.642-0.103-2.417-0.292l-0.371,1.517c-1.656-0.404-3.174-1.151-4.511-2.221
						l0.976-1.221C486.09,424.93,485.101,423.676,484.436,422.239z"/>
				</g>
				<circle fill="#FFFFFF" cx="493.636" cy="417.842" r="3.899"/>
			</g>
			<g>
				<path fill="#FEFAED" d="M474.585,409.934h-1.552l2.644-21.293h13.217l2.883,12C484.794,400.853,477.411,403.879,474.585,409.934
					z"/>
			</g>
			<g>
				<path fill="#2B252C" d="M489.104,400.859c-6.115,0.813-12.053,3.791-14.519,9.074h-1.552l1.126-9.074H489.104z"/>
			</g>
			<path fill="#6F3030" d="M482.799,400.996v-3.559c0-1.814,1.469-3.285,3.285-3.285c1.813,0,3.285,1.471,3.285,3.285v3.559H482.799
				z"/>
			<g>
				<g>
					<path fill="#2B252C" d="M459.476,425.668c-1.527,1.495-3.457,2.334-5.437,2.511l0.106,1.175
						c-1.917,0.174-3.832-0.199-5.535-1.075l0.54-1.048c-0.804-0.414-1.561-0.957-2.236-1.63c-0.827-0.828-1.457-1.778-1.891-2.793
						l-1.084,0.466c-0.756-1.762-0.996-3.695-0.691-5.595l1.166,0.186c0.287-1.793,1.12-3.516,2.502-4.897
						c0.137-0.138,0.279-0.268,0.423-0.395l-0.779-0.886c1.441-1.27,3.208-2.097,5.107-2.394l0.181,1.166
						c2.021-0.314,4.131,0.064,5.942,1.139l0.602-1.014c0.722,0.43,1.391,0.951,1.99,1.551c0.757,0.756,1.384,1.619,1.865,2.564
						l-1.052,0.533c0.954,1.877,1.201,4.02,0.746,6.035l1.194,0.26c-0.415,1.869-1.322,3.613-2.693,4.984l-0.06,0.06
						L459.476,425.668z"/>
				</g>
				<circle fill="#FFFFFF" cx="453.126" cy="419.154" r="3.045"/>
			</g>
		</g>
		<path fill="#2B252C" d="M464,395.5c0,1.381-1.119,2.5-2.5,2.5l0,0c-1.381,0-2.5-1.119-2.5-2.5v-3c0-1.381,1.119-2.5,2.5-2.5l0,0
			c1.381,0,2.5,1.119,2.5,2.5V395.5z"/>
	</g>
	<g>
		<path fill="#69AC2F" d="M1098,444.388c0,9.419-7.636,16.612-17.053,16.612H282.053c-9.418,0-17.053-7.193-17.053-16.612v-0.242
			c0-9.419,7.635-18.146,17.053-18.146h798.894c9.417,0,17.053,8.727,17.053,18.146V444.388z"/>
		<path fill="#69AC2F" d="M1098,444.388c0,9.419-7.636,16.612-17.053,16.612H282.053c-9.418,0-17.053-7.193-17.053-16.612v-0.242
			c0-9.419,7.635-18.146,17.053-18.146h798.894c9.417,0,17.053,8.727,17.053,18.146V444.388z"/>
		<path fill="#438934" d="M1080.947,447H282.054c-6.837,0-12.717-4.088-15.436-9.895c-1.027,2.193-1.618,4.446-1.618,7.028
			c0,9.418,7.635,16.866,17.054,16.866h798.894c9.417,0,17.053-7.475,17.053-16.895c0-2.582-0.592-4.886-1.617-7.08
			C1093.661,442.834,1087.782,447,1080.947,447z"/>
	</g>
	<g>
		<path fill="#6F3030" d="M540.127,424.641l-0.569-8.471c0-3.509-2.732-6.354-6.241-6.354s-6.297,2.845-6.297,6.354l-0.746,8.471
			c-0.731,0-1.274,0.593-1.274,1.324v0.529c0,0.73,0.552,0.506,1.282,0.506h14.296c0.73,0,0.422,0.225,0.422-0.506v-0.529
			C541,425.233,540.858,424.641,540.127,424.641z"/>
		<rect x="530" y="419" fill="#B95517" width="6" height="2"/>
		<path fill="#6F3030" d="M536.26,406.631c0-1.125-0.939-2.063-2.065-2.063c-0.85,0-1.593,0.535-1.906,1.283
			c-1.108-0.879-2.943,0.36-2.307,1.867c0.347,0.821,1.095,0.994,1.75,0.787c0.074,0.168,0.133,0.34,0.189,0.516
			c-0.054,0.132-0.098,0.267-0.159,0.396c-0.271,0.585-0.223,1.139-0.195,1.766c0.055,1.221,0.448,2.712,1.961,2.712
			c1.491,0,1.871-1.62,1.593-2.798c0.06-0.824-0.176-1.678-0.608-2.434C535.491,408.506,536.26,407.648,536.26,406.631z"/>
		<path fill="#FFFFFF" d="M535,409.5c0,0.276-0.224,0.5-0.5,0.5h-3c-0.276,0-0.5-0.224-0.5-0.5l0,0c0-0.276,0.224-0.5,0.5-0.5h3
			C534.776,409,535,409.224,535,409.5L535,409.5z"/>
	</g>
	<g>
		<path fill="#6F3030" d="M389.414,424.641l-0.926-8.471c0-3.509-2.91-6.354-6.418-6.354s-6.385,2.845-6.385,6.354l-1.078,8.471
			c-0.731,0-1.606,0.593-1.606,1.324v0.529c0,0.73,1.126,0.506,1.856,0.506h14.296c0.73,0,1.848,0.225,1.848-0.506v-0.529
			C391,425.233,390.146,424.641,389.414,424.641z"/>
		<rect x="378" y="419" fill="#B95517" width="8" height="2"/>
		<path fill="#6F3030" d="M384.834,406.631c0-1.125-0.939-2.063-2.065-2.063c-0.85,0-1.593,0.535-1.905,1.283
			c-1.109-0.879-2.944,0.36-2.308,1.867c0.347,0.821,1.096,0.994,1.75,0.787c0.074,0.168,0.133,0.34,0.19,0.516
			c-0.054,0.132-0.099,0.267-0.159,0.396c-0.272,0.585-0.224,1.139-0.196,1.766c0.055,1.221,0.448,2.712,1.961,2.712
			c1.491,0,1.871-1.62,1.593-2.798c0.06-0.824-0.176-1.678-0.608-2.434C384.065,408.506,384.834,407.648,384.834,406.631z"/>
		<path fill="#FFFFFF" d="M383,409.5c0,0.276-0.224,0.5-0.5,0.5h-3c-0.276,0-0.5-0.224-0.5-0.5l0,0c0-0.276,0.224-0.5,0.5-0.5h3
			C382.776,409,383,409.224,383,409.5L383,409.5z"/>
	</g>
	<g>
		<path fill="#6F3030" d="M688.221,424.641l-1.021-8.471c0-3.509-2.958-6.354-6.467-6.354s-6.41,2.845-6.41,6.354l-0.896,8.471
			c-0.73,0-1.426,0.593-1.426,1.324v0.529c0,0.73,0.739,0.506,1.471,0.506h14.295c0.731,0,2.234,0.225,2.234-0.506v-0.529
			C690,425.233,688.953,424.641,688.221,424.641z"/>
		<rect x="677" y="419" fill="#B95517" width="6" height="2"/>
		<path fill="#6F3030" d="M683.447,406.631c0-1.125-0.938-2.063-2.064-2.063c-0.851,0-1.592,0.535-1.905,1.283
			c-1.107-0.879-2.944,0.36-2.308,1.867c0.348,0.821,1.098,0.994,1.75,0.787c0.073,0.168,0.133,0.34,0.19,0.516
			c-0.055,0.132-0.099,0.267-0.16,0.396c-0.272,0.585-0.223,1.139-0.194,1.766c0.054,1.221,0.445,2.712,1.959,2.712
			c1.492,0,1.873-1.62,1.595-2.798c0.062-0.824-0.176-1.678-0.607-2.434C682.679,408.506,683.447,407.648,683.447,406.631z"/>
		<path fill="#FFFFFF" d="M682,409.5c0,0.276-0.224,0.5-0.5,0.5h-3c-0.276,0-0.5-0.224-0.5-0.5l0,0c0-0.276,0.224-0.5,0.5-0.5h3
			C681.776,409,682,409.224,682,409.5L682,409.5z"/>
	</g>
	<g>
		<path fill="none" stroke="#2B252C" stroke-miterlimit="10" d="M520.5,420.588c0,1.608-1.304,2.912-2.912,2.912h-0.176
			c-1.608,0-2.912-1.304-2.912-2.912v-4.176c0-1.608,1.304-2.912,2.912-2.912h0.176c1.608,0,2.912,1.304,2.912,2.912V420.588z"/>
		<polygon fill="#2796D2" points="521.591,427 513.443,427 512.252,418 522.782,418 		"/>
		<path fill="#454C53" d="M522,426.516c0,0.268-0.217,0.484-0.486,0.484h-8.028c-0.269,0-0.486-0.217-0.486-0.484v-0.031
			c0-0.268,0.217-0.484,0.486-0.484h8.028c0.269,0,0.486,0.217,0.486,0.484V426.516z"/>
		<path fill="#454C53" d="M523,418.515c0,0.269-0.217,0.485-0.486,0.485h-10.028c-0.269,0-0.486-0.217-0.486-0.485v-0.029
			c0-0.269,0.217-0.485,0.486-0.485h10.028c0.269,0,0.486,0.217,0.486,0.485V418.515z"/>
	</g>
	<path fill="#FFFFFF" d="M501.915,292.807c-0.635-2.291-2.587-4.209-5.861-4.209c-0.677,0-1.587,0.18-2.293,0.493
		c-0.959-1.733-2.647-3-5.237-3c-0.811,0-1.495,0.128-2.147,0.351c-0.807-2.795-3.392-4.89-6.419-4.89
		c-3.399,0-6.262,2.64-6.646,5.95c-0.093-0.008-0.182-0.015-0.277-0.015c-2.162,0-3.962,1.804-3.962,3.966
		c0,0.475,0.091,0.93,0.249,1.354H501.915z"/>
	<g>
		<g>
			<path fill="#F9B213" d="M952,402.119c0,9.514-7.659,16.881-17.174,16.881h-0.492c-9.512,0-17.334-7.367-17.334-16.881v-24.845
				c0-9.515,7.822-16.274,17.334-16.274h0.492c9.515,0,17.174,6.76,17.174,16.274V402.119z"/>
			<path opacity="0.6" fill="#FFD021" d="M934.181,359.936c-9.441,0.084-17.071,7.758-17.071,17.219v25.141
				c0,9.463,7.63,17.135,17.071,17.22V359.936z"/>
			<path fill="#8F4414" d="M937.594,428.525v-32.748c0-1.801-1.458-3.259-3.258-3.259c-1.801,0-3.259,1.458-3.259,3.259v32.748
				H937.594z"/>
		</g>
		<g>
			<path fill="#F9B213" d="M984,403.773c0,9.514-7.713,17.227-17.228,17.227h-0.545c-9.515,0-17.228-7.713-17.228-17.227v-25.547
				c0-9.514,7.713-17.227,17.228-17.227h0.545c9.515,0,17.228,7.713,17.228,17.227V403.773z"/>
			<path opacity="0.6" fill="#FFD021" d="M965.841,359.936c-9.441,0.084-17.071,7.758-17.071,17.219v25.141
				c0,9.463,7.63,17.135,17.071,17.22V359.936z"/>
			<path fill="#8F4414" d="M969.254,428.525v-32.748c0-1.801-1.459-3.259-3.26-3.259c-1.799,0-3.259,1.458-3.259,3.259v32.748
				H969.254z"/>
		</g>
		<g>
			<path fill="#F9B213" d="M1016,403.773c0,9.514-7.713,17.227-17.228,17.227h-0.545c-9.515,0-17.228-7.713-17.228-17.227v-25.547
				c0-9.514,7.713-17.227,17.228-17.227h0.545c9.515,0,17.228,7.713,17.228,17.227V403.773z"/>
			<path opacity="0.6" fill="#FFD021" d="M997.501,359.936c-9.442,0.084-17.073,7.758-17.073,17.219v25.141
				c0,9.463,7.631,17.135,17.073,17.22V359.936z"/>
			<path fill="#8F4414" d="M1000.914,428.525v-32.748c0-1.801-1.46-3.259-3.26-3.259c-1.799,0-3.259,1.458-3.259,3.259v32.748
				H1000.914z"/>
		</g>
		<g>
			<g>
				<circle fill="#F18838" cx="925.051" cy="375.401" r="3.176"/>
			</g>
			<g>
				<circle fill="#F18838" cx="941.993" cy="381.755" r="3.177"/>
			</g>
			<g>
				<circle fill="#F18838" cx="925.051" cy="405.051" r="3.176"/>
			</g>
			<g>
				<circle fill="#F18838" cx="955.759" cy="397.639" r="3.177"/>
			</g>
			<g>
				<circle fill="#F18838" cx="959.995" cy="376.461" r="3.177"/>
			</g>
			<g>
				<circle fill="#F18838" cx="974.819" cy="387.05" r="3.177"/>
			</g>
			<g>
				<circle fill="#F18838" cx="988.585" cy="378.578" r="3.177"/>
			</g>
			<g>
				<circle fill="#F18838" cx="1005.528" cy="374.343" r="3.177"/>
			</g>
			<g>
				<circle fill="#F18838" cx="1009.763" cy="400.815" r="3.177"/>
			</g>
			<g>
				<circle fill="#F18838" cx="987.526" cy="400.815" r="3.177"/>
			</g>
		</g>
	</g>
	<g>
		<rect x="881.811" y="365.75" fill="#8F4414" width="3.176" height="26.05"/>
		<polygon fill="#EA5448" points="885,375.931 861.704,368.519 885,361.106 		"/>
	</g>
	<g>
		<path fill="#EA5448" d="M741.405,394.174c-0.241-0.539-0.605-0.981-1.084-1.328c-0.756-0.539-1.551-0.638-2.446-0.564
			c-1.609,0.129-2.885,1.751-3.034,3.281c-0.109,1.123,0.414,2.25,1.33,2.903c0.474,0.334,0.997,0.53,1.572,0.584
			c0.611,0.056,1.379-0.077,1.948-0.425c0.105,0.266,0.204,0.535,0.297,0.805c0.042,0.195,0.104,0.385,0.188,0.564
			c0.031,0.069,0.059,0.14,0.084,0.211c-0.135-0.447-0.113-0.381,0.063,0.203c0.126,0.368,0.395,0.691,0.717,0.907
			c0.6,0.401,1.165,0.383,1.826,0.183c0.631-0.191,1.023-0.844,1.223-1.429c0.219-0.639,0.215-1.151,0.179-1.815
			c-0.018-0.289-0.057-0.578-0.096-0.865c-0.143-1.061-0.646-1.758-1.629-2.21c-0.285-0.132-0.589-0.171-0.892-0.149
			C741.608,394.736,741.528,394.446,741.405,394.174z"/>
		<path fill="#EA5448" d="M742.074,393.238c-0.589-0.056-1.125-0.255-1.606-0.598c-0.756-0.538-1.107-1.257-1.329-2.129
			c-0.398-1.564,0.72-3.297,2.12-3.934c1.028-0.469,2.263-0.338,3.179,0.316c0.469,0.338,0.823,0.771,1.062,1.297
			c0.25,0.56,0.376,1.33,0.23,1.98c0.286,0.013,0.572,0.021,0.857,0.021c0.199-0.024,0.396-0.028,0.596-0.004
			c0.074,0.007,0.149,0.009,0.225,0.009c-0.467,0.019-0.396,0.016,0.212-0.006c0.392,0.001,0.784,0.148,1.094,0.385
			c0.574,0.436,0.739,0.977,0.764,1.668c0.024,0.658-0.467,1.241-0.954,1.619c-0.533,0.412-1.021,0.577-1.659,0.758
			c-0.279,0.079-0.565,0.135-0.851,0.19c-1.049,0.209-1.873-0.04-2.619-0.825c-0.217-0.227-0.352-0.502-0.43-0.793
			C742.672,393.248,742.372,393.266,742.074,393.238z"/>
		<path fill="#FFFFFF" d="M745.267,394.924c0.467,0.332,0.574,0.979,0.241,1.444l-0.027,0.038c-0.332,0.465-0.979,0.572-1.445,0.24
			l-5.207-3.719c-0.465-0.332-0.572-0.979-0.241-1.445l0.028-0.039c0.331-0.465,0.979-0.572,1.444-0.24L745.267,394.924z"/>
	</g>
	<g>
		<path fill="#EA5448" d="M808.892,392.195c0.58,0.106,1.149,0.06,1.708-0.138c0.873-0.313,1.406-0.909,1.857-1.688
			c0.81-1.397,0.204-3.369-0.969-4.363c-0.861-0.729-2.086-0.94-3.145-0.561c-0.543,0.199-1.002,0.518-1.375,0.96
			c-0.393,0.47-0.724,1.178-0.761,1.843c-0.278-0.065-0.557-0.136-0.829-0.214c-0.188-0.077-0.377-0.135-0.574-0.167
			c-0.074-0.013-0.146-0.03-0.219-0.052c0.445,0.146,0.377,0.123-0.203-0.063c-0.374-0.105-0.793-0.069-1.155,0.072
			c-0.672,0.265-0.977,0.739-1.19,1.396c-0.2,0.628,0.113,1.323,0.479,1.819c0.402,0.544,0.826,0.834,1.392,1.18
			c0.247,0.152,0.507,0.285,0.767,0.416c0.952,0.486,1.811,0.471,2.744-0.081c0.269-0.159,0.474-0.387,0.629-0.646
			C808.313,392.041,808.596,392.14,808.892,392.195z"/>
		<path fill="#EA5448" d="M809.279,393.275c0.382-0.452,0.85-0.778,1.406-0.979c0.873-0.313,1.663-0.193,2.506,0.12
			c1.514,0.564,2.301,2.471,2.026,3.983c-0.201,1.111-1.011,2.052-2.07,2.433c-0.547,0.192-1.103,0.238-1.672,0.134
			c-0.602-0.113-1.307-0.449-1.758-0.939c-0.175,0.228-0.344,0.459-0.506,0.694c-0.094,0.176-0.204,0.342-0.336,0.492
			c-0.048,0.057-0.092,0.117-0.137,0.18c0.251-0.396,0.212-0.335-0.114,0.178c-0.223,0.319-0.569,0.559-0.939,0.679
			c-0.686,0.224-1.225,0.051-1.806-0.322c-0.556-0.354-0.756-1.091-0.789-1.706c-0.034-0.674,0.109-1.168,0.324-1.796
			c0.093-0.274,0.212-0.542,0.327-0.808c0.426-0.981,1.1-1.516,2.17-1.683c0.311-0.05,0.611-0.003,0.896,0.099
			C808.931,393.762,809.087,393.505,809.279,393.275z"/>
		<path fill="#FFFFFF" d="M806.073,394.94c-0.537,0.193-1.13-0.087-1.322-0.624l-0.018-0.045c-0.192-0.539,0.088-1.131,0.626-1.324
			l6.024-2.162c0.538-0.193,1.131,0.087,1.323,0.625l0.017,0.045c0.192,0.537-0.088,1.131-0.625,1.324L806.073,394.94z"/>
	</g>
	<g>
		<path fill="#F18838" d="M772.888,375.252c0.582,0.107,1.151,0.061,1.71-0.137c0.873-0.313,1.406-0.91,1.857-1.688
			c0.81-1.396,0.204-3.369-0.971-4.363c-0.859-0.729-2.084-0.94-3.143-0.561c-0.545,0.199-1.004,0.518-1.377,0.959
			c-0.393,0.471-0.722,1.178-0.759,1.844c-0.278-0.065-0.557-0.136-0.831-0.214c-0.186-0.077-0.377-0.135-0.572-0.167
			c-0.074-0.014-0.146-0.031-0.219-0.051c0.443,0.145,0.375,0.123-0.203-0.064c-0.376-0.105-0.795-0.069-1.155,0.072
			c-0.672,0.264-0.979,0.74-1.19,1.396c-0.202,0.628,0.111,1.323,0.479,1.818c0.4,0.545,0.824,0.834,1.39,1.182
			c0.247,0.151,0.509,0.283,0.767,0.415c0.952,0.487,1.813,0.47,2.744-0.081c0.271-0.16,0.476-0.387,0.629-0.647
			C772.311,375.098,772.594,375.197,772.888,375.252z"/>
		<path fill="#F18838" d="M773.275,376.333c0.382-0.453,0.85-0.778,1.406-0.98c0.873-0.313,1.665-0.193,2.508,0.12
			c1.514,0.564,2.299,2.471,2.024,3.984c-0.199,1.11-1.009,2.052-2.07,2.433c-0.545,0.192-1.103,0.237-1.67,0.133
			c-0.602-0.112-1.307-0.448-1.758-0.938c-0.175,0.229-0.345,0.459-0.508,0.693c-0.092,0.176-0.202,0.342-0.334,0.492
			c-0.05,0.058-0.094,0.117-0.137,0.18c0.251-0.395,0.212-0.334-0.114,0.179c-0.225,0.319-0.571,0.558-0.939,0.678
			c-0.688,0.224-1.225,0.051-1.808-0.321c-0.554-0.355-0.754-1.092-0.787-1.707c-0.035-0.673,0.107-1.168,0.322-1.795
			c0.095-0.275,0.212-0.542,0.327-0.809c0.428-0.98,1.102-1.516,2.17-1.682c0.311-0.05,0.613-0.004,0.898,0.098
			C772.927,376.819,773.085,376.563,773.275,376.333z"/>
		<path fill="#FFFFFF" d="M770.071,377.998c-0.537,0.193-1.13-0.086-1.324-0.624l-0.016-0.046c-0.194-0.537,0.086-1.131,0.626-1.323
			l6.022-2.163c0.54-0.193,1.131,0.088,1.325,0.625l0.015,0.045c0.194,0.539-0.086,1.132-0.623,1.325L770.071,377.998z"/>
	</g>
	<g>
		<g>
			<path fill-rule="evenodd" clip-rule="evenodd" fill="#F08356" d="M780.933,428.502c0,0.777,0.545,7.881,0.545,7.881
				c-0.005-0.045,0.509,0.008,0.516-0.031c0.032-0.166,1.338-6.828,1.173-6.861C783.001,429.459,780.933,428.502,780.933,428.502z"
				/>
			<path fill-rule="evenodd" clip-rule="evenodd" fill="#F08356" d="M781.914,436.221c0,0-3.967,0.891-3.802,0.84
				c0.165-0.049,2.737-0.23,2.737-0.23s-2.754,1.121-2.621,1.057c0.131-0.066,3.183-0.66,3.314-0.693s2.771,0.527,2.639,0.445
				C784.049,437.557,781.914,436.221,781.914,436.221z"/>
			<path fill-rule="evenodd" clip-rule="evenodd" fill="#F08356" d="M787.596,428.666c0,0.777,0.545,7.883,0.545,7.883
				c-0.006-0.047,0.508,0.006,0.516-0.033c0.033-0.164,1.337-6.826,1.172-6.859C789.664,429.623,787.596,428.666,787.596,428.666z"
				/>
			<path fill-rule="evenodd" clip-rule="evenodd" fill="#F08356" d="M788.576,436.385c0,0-3.967,0.891-3.801,0.842
				c0.164-0.051,2.737-0.23,2.737-0.23s-2.755,1.121-2.622,1.055c0.132-0.066,3.184-0.66,3.314-0.693
				c0.133-0.031,2.771,0.529,2.639,0.445C790.713,437.721,788.576,436.385,788.576,436.385z"/>
			<path fill-rule="evenodd" clip-rule="evenodd" fill="#ED6790" d="M772.838,394.032c-0.168-0.938-3.356-2.749-2.307-4.098
				c0.518-0.667,1.967-1.122,2.548-0.409c0.103-1.839,1.79-2.05,2.769-1.819c1.16,0.272,1.179,1.72,1.361,1.81
				c0.099-0.736,1.759-0.8,2.188,0.389c0.262,0.727,0.264,1.881-1.57,2.35C777.75,392.274,773.563,393.67,772.838,394.032z"/>
			<path fill-rule="evenodd" clip-rule="evenodd" fill="#9B5230" d="M799.158,404.998c-0.025-0.374-0.975-6.893-1.523-10.088
				c-0.549-3.197-1.098-5.27,0.125-5.195c1.224,0.076,3.146,7.092,3.146,7.092s-0.199-4.719,1.349-4.969s1.772,7.867,1.872,7.691
				c0.102-0.174,2.174-4.619,3.646-3.871c1.475,0.75-2.746,7.293-2.746,7.293c4.135-3.365,6.545,1.105-3.98,4.969L799.158,404.998z"
				/>
			<path fill-rule="evenodd" clip-rule="evenodd" fill="#ED6790" d="M772.307,395.04c-0.604,0-6.344-0.752-8.048,1.6
				c4.124,0.978,5.191,2.413,5.839,2.573c1.27,0.313,1.5-0.133,1.434-0.577C771.465,398.19,772.307,395.04,772.307,395.04z"/>
			<path fill-rule="evenodd" clip-rule="evenodd" fill="#F8B684" d="M781.295,393.506c4.402,4.404,1.125,15.17,9.895,14.019
				c3.918-0.515,5.931-1.411,7.361-2.392c1.055-0.722,2.49-1.723,3.469-0.358c6.125,8.553,3.682,21.149-6.773,25.312
				c-6.795,2.705-17.35,1.912-22.956-4.025c-5.607-5.936-6.2-18.85-4.156-25.678C769.97,394.254,775.07,387.283,781.295,393.506z"/>
			<path fill-rule="evenodd" clip-rule="evenodd" fill="#FFFFFF" d="M776.084,399.113c-1.572,0-2.854-1.208-2.854-2.688
				s1.281-2.688,2.854-2.688c1.57,0,2.852,1.208,2.852,2.688S777.654,399.113,776.084,399.113z"/>
			<ellipse fill-rule="evenodd" clip-rule="evenodd" fill="#3E5D5A" cx="775.365" cy="396.261" rx="0.994" ry="0.937"/>
			<path fill-rule="evenodd" clip-rule="evenodd" fill="#9B5230" d="M799.635,418.764c-6.615-1.639-10.683-5.745-15.635-9.764
				c-6.691-5.43-6.226,16.475,6.853,15.016l-0.668-0.618c3.403,0.255,5.714-0.513,7.438-2.259c0.135-0.137-3.447-0.445-3.547-0.463
				c-0.098-0.016,1.385-0.098,3.068-0.659C798.826,419.456,799.635,418.764,799.635,418.764z"/>
		</g>
		<g>
			<path fill-rule="evenodd" clip-rule="evenodd" fill="#F28D49" d="M759.078,432.398c0,0.266-0.187,2.695-0.187,2.695
				c0.002-0.016-0.174,0.002-0.177-0.012c-0.011-0.057-0.457-2.334-0.4-2.346S759.078,432.398,759.078,432.398z"/>
			<path fill-rule="evenodd" clip-rule="evenodd" fill="#F28D49" d="M758.742,435.037c0,0,1.356,0.305,1.301,0.289
				c-0.057-0.018-0.937-0.08-0.937-0.08s0.942,0.385,0.897,0.361c-0.047-0.021-1.09-0.225-1.135-0.236s-0.947,0.18-0.902,0.152
				C758.012,435.494,758.742,435.037,758.742,435.037z"/>
			<path fill-rule="evenodd" clip-rule="evenodd" fill="#F28D49" d="M756.8,432.455c0,0.266-0.187,2.695-0.187,2.695
				c0.002-0.016-0.174,0.002-0.176-0.012c-0.012-0.057-0.458-2.334-0.401-2.346C756.092,432.781,756.8,432.455,756.8,432.455z"/>
			<path fill-rule="evenodd" clip-rule="evenodd" fill="#F28D49" d="M756.464,435.094c0,0,1.356,0.305,1.3,0.289
				c-0.057-0.018-0.936-0.08-0.936-0.08s0.941,0.383,0.896,0.361c-0.045-0.023-1.088-0.225-1.133-0.236
				c-0.046-0.012-0.948,0.18-0.902,0.152C755.734,435.551,756.464,435.094,756.464,435.094z"/>
			<path fill-rule="evenodd" clip-rule="evenodd" fill="#FDCD4A" d="M759.482,423.157c-2.047,0.13-2.167,2.683-4.195,2.673
				c-2.35-0.012-1.795,0.176-2.384-0.455c-0.269-0.287-0.276,1.322-0.437,1.668c-2.288,4.992,5.949,9.408,9.738,4.418
				C765.823,426.695,763.261,422.918,759.482,423.157z"/>
			<path fill-rule="evenodd" clip-rule="evenodd" fill="#EC667A" d="M763.395,425.17c0.226-0.041,0.908,0.039,1.049,0.178
				c0,0-0.759,0.404-0.829,0.4S763.33,425.354,763.395,425.17z"/>
			<ellipse fill-rule="evenodd" clip-rule="evenodd" fill="#FFFFFF" cx="761.237" cy="425.16" rx="0.976" ry="0.92"/>
			<ellipse fill-rule="evenodd" clip-rule="evenodd" fill="#2C4844" cx="761.482" cy="425.104" rx="0.34" ry="0.319"/>
			<path fill-rule="evenodd" clip-rule="evenodd" fill="#F59E4D" d="M754.492,426.785c-0.823,0.574,0.598,1.85,0.406,1.783
				c-0.191-0.068-1.309,0.225-1.207,0.654c0.102,0.428,1.354,0.619,1.354,0.619s-0.947,0.824-0.508,1.105
				c0.439,0.283,1.016,0.564,2.674-0.09s1.273-1.805,1.139-2.268C758.115,427.789,755.195,426.293,754.492,426.785z"/>
		</g>
		<g>
			<path fill-rule="evenodd" clip-rule="evenodd" fill="#F28D49" d="M826.326,440.834c0,0.25-0.042,2.414-0.061,2.654
				c0.295,0.102,0.518,0.246,0.466,0.23c-0.05-0.016-0.377-0.037-0.377-0.037s-0.073,0.467-0.118,0.445
				c-0.045-0.023-0.17-0.42-0.215-0.432c-0.045-0.01-0.264,0.049-0.355,0.023l0.394-0.215c-0.05-0.254-0.313-2.42-0.257-2.432
				C825.857,441.061,826.326,440.834,826.326,440.834z"/>
			<path fill-rule="evenodd" clip-rule="evenodd" fill="#F28D49" d="M829.215,440.83c0,0.25-0.043,2.414-0.061,2.656
				c0.295,0.1,0.516,0.244,0.466,0.229c-0.051-0.016-0.377-0.037-0.377-0.037s-0.073,0.467-0.118,0.445
				c-0.045-0.023-0.17-0.42-0.215-0.432c-0.045-0.01-0.264,0.049-0.356,0.021l0.396-0.213c-0.051-0.254-0.314-2.42-0.259-2.432
				C828.745,441.057,829.215,440.83,829.215,440.83z"/>
			<path fill-rule="evenodd" clip-rule="evenodd" fill="#FDCD4A" d="M829.766,432.637c1.901,0.873,3.221,2.352,3.221,4.961
				s-2.611,4.408-5.695,4.408c-3.085,0-5.475-1.799-5.475-4.408s1.318-4.088,3.221-4.961c0.59-0.633,1.431-1.027,2.363-1.027
				C828.334,431.609,829.176,432.004,829.766,432.637z"/>
			<ellipse fill-rule="evenodd" clip-rule="evenodd" fill="#FFFFFF" cx="825.219" cy="434.362" rx="0.878" ry="0.919"/>
			<ellipse fill-rule="evenodd" clip-rule="evenodd" fill="#2C4844" cx="825.439" cy="434.307" rx="0.307" ry="0.32"/>
			<ellipse fill-rule="evenodd" clip-rule="evenodd" fill="#FFFFFF" cx="829.319" cy="434.344" rx="0.853" ry="0.92"/>
			<ellipse fill-rule="evenodd" clip-rule="evenodd" fill="#2C4844" cx="829.533" cy="434.287" rx="0.299" ry="0.32"/>
			<path fill-rule="evenodd" clip-rule="evenodd" fill="#EC667A" d="M826.976,435.254c0.215-0.463,0.991-0.258,0.998-0.061
				c0.017,0.531-0.356,1.078-0.524,1.074S826.953,435.631,826.976,435.254z"/>
			<path fill-rule="evenodd" clip-rule="evenodd" fill="#F59E4D" d="M821.3,434.814c-0.317,0.533-0.044,1.078-0.124,1.01
				s-0.545,0.227-0.503,0.654s0.563,0.621,0.563,0.621s-0.395,0.822-0.211,1.105c0.183,0.281,0.422,0.563,1.112-0.09
				c0.69-0.654,0.53-1.807,0.474-2.268C822.514,435.045,821.617,434.281,821.3,434.814z"/>
			<path fill-rule="evenodd" clip-rule="evenodd" fill="#F59E4D" d="M833.482,434.611c0.318,0.533,0.045,1.078,0.125,1.012
				c0.08-0.068,0.545,0.225,0.503,0.654c-0.042,0.428-0.563,0.619-0.563,0.619s0.395,0.824,0.211,1.105
				c-0.184,0.283-0.422,0.564-1.111-0.09c-0.691-0.654-0.531-1.805-0.476-2.268C832.27,434.844,833.165,434.078,833.482,434.611z"/>
		</g>
		<g>
			<path fill-rule="evenodd" clip-rule="evenodd" fill="#F28D49" d="M809.334,438.014c0,0.264,0.188,2.693,0.188,2.693
				c-0.002-0.014,0.173,0.004,0.176-0.01c0.012-0.057,0.457-2.334,0.4-2.346S809.334,438.014,809.334,438.014z"/>
			<path fill-rule="evenodd" clip-rule="evenodd" fill="#F28D49" d="M809.67,440.652c0,0-1.356,0.305-1.3,0.287
				c0.056-0.016,0.937-0.078,0.937-0.078s-0.942,0.383-0.896,0.361c0.045-0.023,1.088-0.227,1.133-0.236
				c0.045-0.012,0.947,0.18,0.902,0.152C810.4,441.109,809.67,440.652,809.67,440.652z"/>
			<path fill-rule="evenodd" clip-rule="evenodd" fill="#F28D49" d="M811.613,438.07c0,0.264,0.186,2.693,0.186,2.693
				c-0.002-0.014,0.174,0.004,0.177-0.01c0.011-0.057,0.458-2.336,0.401-2.346C812.32,438.396,811.613,438.07,811.613,438.07z"/>
			<path fill-rule="evenodd" clip-rule="evenodd" fill="#F28D49" d="M811.948,440.709c0,0-1.356,0.305-1.3,0.287
				c0.057-0.016,0.936-0.078,0.936-0.078s-0.941,0.383-0.896,0.361c0.045-0.023,1.089-0.227,1.135-0.238
				c0.045-0.01,0.947,0.182,0.902,0.152C812.679,441.166,811.948,440.709,811.948,440.709z"/>
			<path fill-rule="evenodd" clip-rule="evenodd" fill="#FDCD4A" d="M808.93,428.771c2.047,0.131,2.168,2.684,4.195,2.674
				c2.35-0.012,1.795,0.174,2.385-0.457c0.268-0.287,0.275,1.322,0.436,1.67c2.289,4.992-5.949,9.406-9.738,4.418
				C802.589,432.311,805.152,428.531,808.93,428.771z"/>
			<path fill-rule="evenodd" clip-rule="evenodd" fill="#EC667A" d="M805.019,430.785c-0.227-0.043-0.909,0.037-1.049,0.176
				c0,0,0.759,0.404,0.828,0.402C804.869,431.359,805.082,430.969,805.019,430.785z"/>
			<ellipse fill-rule="evenodd" clip-rule="evenodd" fill="#FFFFFF" cx="807.176" cy="430.775" rx="0.976" ry="0.92"/>
			<ellipse fill-rule="evenodd" clip-rule="evenodd" fill="#2C4844" cx="806.93" cy="430.719" rx="0.342" ry="0.32"/>
			<path fill-rule="evenodd" clip-rule="evenodd" fill="#F59E4D" d="M813.92,432.4c0.824,0.574-0.598,1.85-0.405,1.781
				c0.191-0.068,1.309,0.227,1.207,0.654c-0.102,0.43-1.354,0.621-1.354,0.621s0.947,0.822,0.508,1.105
				c-0.439,0.281-1.015,0.563-2.674-0.09c-1.656-0.654-1.273-1.807-1.138-2.268C810.297,433.402,813.217,431.908,813.92,432.4z"/>
			<path fill-rule="evenodd" clip-rule="evenodd" fill="#FDCD4A" d="M806.902,429.164c0.091-0.133,0.405-0.387,1.168-0.689
				c0.762-0.303,0.799-0.229,0.67-0.092c-0.129,0.139-0.139,0.166-0.139,0.166s0.965-0.027,0.892,0.072
				c-0.073,0.102-0.184,0.139-0.083,0.139c0.102,0,1.16,0.266,0.883,0.32c-0.279,0.057-0.451,0-1.396,0.102
				C807.949,429.283,806.902,429.164,806.902,429.164z"/>
		</g>
		<g>
			<path fill-rule="evenodd" clip-rule="evenodd" fill="#EE7565" d="M740.532,386.816c0.001-1.064,3.95-5.199,2.535-6.473
				c-0.7-0.63-3.187,0.682-3.683,1.578c-0.475-1.998-1.994-3.568-3.021-3.124c-1.219,0.528-1.326,3.79-1.51,3.923
				c-0.175-0.545-2.373-1.593-2.955-1.046c-1.424,1.334,2.274,4.507,2.959,4.966C734.93,386.689,739.666,386.561,740.532,386.816z"
				/>
			<path fill-rule="evenodd" clip-rule="evenodd" fill="#F3943E" d="M713.896,401.932c5.262-8.287,2.879-24.803-12.969-20.941
				c-8.744,2.131-15.063,10.435-12.933,9.92c2.131-0.514,4.482-2.719,9.111-3.159c4.63-0.441,8.009,1.47,7.642,1.322
				c-9.205-3.683-15.871,12.205-13.666,10.581c1.396-1.028,3.379-5.363,7.641-6.1c4.262-0.734,7.495,0.222,7.495,0.222
				c-7.595,0.644-8.126,8.345-6.466,6.907c1.102-0.955,1.984-3.014,5.438-3.527s4.557,0.367,4.557,0.367
				c-2.473-0.206-5.496,4.967-2.646,3.232C711.164,398.282,711.541,399.918,713.896,401.932z"/>
			<path fill-rule="evenodd" clip-rule="evenodd" fill="#FCC151" d="M733.025,425.365c0,0.863-0.607,8.777-0.607,8.777
				c0.006-0.051-0.566,0.008-0.575-0.035c-0.036-0.184-1.489-7.605-1.306-7.641C730.721,426.43,733.025,425.365,733.025,425.365z"/>
			<path fill-rule="evenodd" clip-rule="evenodd" fill="#FCC151" d="M731.932,433.961c0,0,4.418,0.992,4.234,0.938
				s-3.049-0.258-3.049-0.258s3.066,1.25,2.92,1.176c-0.146-0.072-3.545-0.734-3.692-0.771c-0.147-0.035-3.086,0.588-2.938,0.496
				C729.553,435.449,731.932,433.961,731.932,433.961z"/>
			<path fill-rule="evenodd" clip-rule="evenodd" fill="#FCC151" d="M725.604,425.549c0,0.863-0.607,8.777-0.607,8.777
				c0.006-0.051-0.566,0.008-0.574-0.035c-0.037-0.184-1.49-7.604-1.307-7.641S725.604,425.549,725.604,425.549z"/>
			<path fill-rule="evenodd" clip-rule="evenodd" fill="#FCC151" d="M724.51,434.146c0,0,4.418,0.99,4.234,0.936
				s-3.049-0.258-3.049-0.258s3.068,1.25,2.921,1.178c-0.147-0.074-3.546-0.736-3.692-0.773c-0.146-0.035-3.086,0.588-2.939,0.496
				S724.51,434.146,724.51,434.146z"/>
			<path fill-rule="evenodd" clip-rule="evenodd" fill="#FFE482" d="M731.479,386.516c-3.07,2.146-2.676,7.602-1.439,11.336
				c1.068,3.227-3.327,5.75-7.818,5.16c-4.365-0.573-6.606-1.572-8.199-2.664c-1.175-0.805-2.775-1.92-3.864-0.398
				c-6.823,9.526-4.101,23.557,7.544,28.193c7.568,3.012,18.514,2.93,24.76-3.684c4.863-5.15,7.727-15.873,3.406-21.088
				c-3.75-4.525-2.219-7.998-2.081-9.343c0.231-2.265-0.294-4.302-1.321-5.88C740.273,384.783,735.797,383.498,731.479,386.516z"/>
			<path fill-rule="evenodd" clip-rule="evenodd" fill="#E9E200" d="M742.321,389.921c0.426-0.819,3.346-1.54,4.771-0.812
				c0.216,0.109-2.297,1.781-2.797,2.523C743.797,392.377,742.321,389.921,742.321,389.921z"/>
			<path fill-rule="evenodd" clip-rule="evenodd" fill="#EE7565" d="M744.176,391.119c2.17-0.527,9.027,5.984,6.261,7.553
				c-0.581,0.33-1.796-1.246-2.2-0.711c-0.402,0.535,1.581,2.809,0.498,3.5C744.791,403.983,743.679,394.538,744.176,391.119z"/>
			<path fill-rule="evenodd" clip-rule="evenodd" fill="#F3943E" d="M709.579,418.52c0.646-1.236,3.362-0.51,3.021-0.729
				s-5.344-2.935-5.098-4.586c0.248-1.652,5.143-1.19,5.143-1.19s-3.721-4.843-3.583-6.67s6.237,0.694,6.987,0.847
				s-2.121-4.619-0.73-4.49c1.391,0.127,4.677,4.162,10.738,6.352c6.061,2.189,9.225-1.148,10.888,2.73
				C741.813,435.248,708.572,420.45,709.579,418.52z"/>
			<path fill-rule="evenodd" clip-rule="evenodd" fill="#FCC151" d="M747.037,415.471c0,0-0.992-6.135-1.066-5.768
				c-0.072,0.367-8.375,5.768-7.348,4.225c1.029-1.543,0.662-4.703,0.662-4.703c-0.435,0.307-6.265,3.421-4.593,1.471
				c0.882-1.029,0.625-2.205,0.625-2.205s-4.556-0.367-5.935-0.661c-1.377-0.294-2.002-0.569-1.598-0.569s1.525-0.643,1.525-0.643
				s-5.677-1.563-4.538-1.746c1.14-0.184,4.372-1.91,3.638-1.8c-0.735,0.11-4.336-0.698-3.711-0.661s1.285,0.343,3.27-2.242
				c2.494-3.246-1.945-12.107,4.557-14.732c2.941-1.188,6.418-1.118,7.801,0.084C747.313,391.592,750.654,410.946,747.037,415.471z"
				/>
			<path fill-rule="evenodd" clip-rule="evenodd" fill="#FFFFFF" d="M737.715,392.694c1.75,0,3.178-1.345,3.178-2.994
				s-1.428-2.994-3.178-2.994s-3.179,1.345-3.179,2.994S735.965,392.694,737.715,392.694z"/>
			<ellipse fill-rule="evenodd" clip-rule="evenodd" fill="#3D5B58" cx="738.514" cy="389.518" rx="1.107" ry="1.043"/>
		</g>
		<g>
			<path fill-rule="evenodd" clip-rule="evenodd" fill="#F28D49" d="M745.225,439.121c0,0.266-0.187,2.695-0.187,2.695
				c0.002-0.016-0.174,0.002-0.177-0.012c-0.011-0.055-0.457-2.334-0.4-2.346C744.518,439.449,745.225,439.121,745.225,439.121z"/>
			<path fill-rule="evenodd" clip-rule="evenodd" fill="#F28D49" d="M744.889,441.762c0,0,1.356,0.303,1.301,0.287
				c-0.057-0.018-0.937-0.08-0.937-0.08s0.941,0.385,0.896,0.361c-0.045-0.021-1.089-0.225-1.134-0.236s-0.947,0.18-0.902,0.152
				C744.158,442.217,744.889,441.762,744.889,441.762z"/>
			<path fill-rule="evenodd" clip-rule="evenodd" fill="#F28D49" d="M742.946,439.178c0,0.266-0.187,2.695-0.187,2.695
				c0.002-0.016-0.174,0.002-0.176-0.012c-0.012-0.057-0.459-2.334-0.401-2.346C742.238,439.504,742.946,439.178,742.946,439.178z"
				/>
			<path fill-rule="evenodd" clip-rule="evenodd" fill="#F28D49" d="M742.61,441.818c0,0,1.356,0.303,1.3,0.287
				c-0.057-0.018-0.936-0.08-0.936-0.08s0.941,0.385,0.896,0.361c-0.045-0.021-1.089-0.225-1.134-0.236s-0.947,0.18-0.901,0.152
				C741.88,442.273,742.61,441.818,742.61,441.818z"/>
			<path fill-rule="evenodd" clip-rule="evenodd" fill="#FDCD4A" d="M745.629,429.881c-2.047,0.129-2.167,2.682-4.195,2.672
				c-2.35-0.012-1.795,0.176-2.385-0.455c-0.268-0.287-0.275,1.322-0.436,1.67c-2.288,4.992,5.949,9.406,9.738,4.416
				C751.97,433.418,749.406,429.641,745.629,429.881z"/>
			<path fill-rule="evenodd" clip-rule="evenodd" fill="#EC667A" d="M749.541,431.893c0.226-0.041,0.908,0.039,1.049,0.178
				c0,0-0.759,0.404-0.829,0.4S749.477,432.076,749.541,431.893z"/>
			<ellipse fill-rule="evenodd" clip-rule="evenodd" fill="#FFFFFF" cx="747.383" cy="431.884" rx="0.977" ry="0.919"/>
			<ellipse fill-rule="evenodd" clip-rule="evenodd" fill="#2C4844" cx="747.629" cy="431.828" rx="0.34" ry="0.32"/>
			<path fill-rule="evenodd" clip-rule="evenodd" fill="#F59E4D" d="M740.639,433.508c-0.824,0.576,0.598,1.85,0.406,1.783
				c-0.192-0.068-1.309,0.225-1.207,0.654c0.102,0.428,1.354,0.619,1.354,0.619s-0.947,0.824-0.508,1.105
				c0.439,0.283,1.015,0.564,2.673-0.09s1.274-1.805,1.14-2.268C744.262,434.512,741.342,433.018,740.639,433.508z"/>
		</g>
		<g>
			<path fill-rule="evenodd" clip-rule="evenodd" fill="#F28D49" d="M705.65,442.115c0,0.266,0.186,2.695,0.186,2.695
				c-0.002-0.018,0.174,0.002,0.177-0.012c0.011-0.057,0.457-2.336,0.401-2.346C706.357,442.441,705.65,442.115,705.65,442.115z"/>
			<path fill-rule="evenodd" clip-rule="evenodd" fill="#F28D49" d="M705.985,444.754c0,0-1.356,0.305-1.3,0.287
				c0.057-0.016,0.936-0.078,0.936-0.078s-0.941,0.383-0.896,0.361c0.045-0.023,1.088-0.227,1.134-0.238
				c0.045-0.01,0.947,0.182,0.902,0.152C706.715,445.211,705.985,444.754,705.985,444.754z"/>
			<path fill-rule="evenodd" clip-rule="evenodd" fill="#F28D49" d="M707.928,442.17c0,0.266,0.187,2.695,0.187,2.695
				c-0.001-0.016,0.174,0.004,0.177-0.01c0.012-0.057,0.457-2.336,0.4-2.346C708.636,442.498,707.928,442.17,707.928,442.17z"/>
			<path fill-rule="evenodd" clip-rule="evenodd" fill="#F28D49" d="M708.264,444.811c0,0-1.356,0.305-1.3,0.287
				c0.056-0.018,0.937-0.078,0.937-0.078s-0.942,0.383-0.896,0.361c0.045-0.023,1.088-0.227,1.133-0.238s0.947,0.182,0.902,0.152
				C708.994,445.268,708.264,444.811,708.264,444.811z"/>
			<path fill-rule="evenodd" clip-rule="evenodd" fill="#FDCD4A" d="M705.245,432.873c2.048,0.129,2.167,2.684,4.196,2.674
				c2.349-0.012,1.795,0.174,2.383-0.457c0.27-0.287,0.277,1.322,0.437,1.67c2.288,4.992-5.95,9.406-9.737,4.416
				C698.904,436.412,701.467,432.633,705.245,432.873z"/>
			<path fill-rule="evenodd" clip-rule="evenodd" fill="#EC667A" d="M701.334,434.887c-0.227-0.043-0.91,0.037-1.049,0.176
				c0,0,0.758,0.404,0.828,0.4C701.184,435.461,701.397,435.07,701.334,434.887z"/>
			<ellipse fill-rule="evenodd" clip-rule="evenodd" fill="#FFFFFF" cx="703.491" cy="434.876" rx="0.976" ry="0.919"/>
			<ellipse fill-rule="evenodd" clip-rule="evenodd" fill="#2C4844" cx="703.245" cy="434.82" rx="0.341" ry="0.32"/>
			<path fill-rule="evenodd" clip-rule="evenodd" fill="#F59E4D" d="M710.236,436.502c0.822,0.574-0.598,1.85-0.406,1.781
				s1.309,0.227,1.207,0.654c-0.102,0.43-1.354,0.621-1.354,0.621s0.947,0.822,0.507,1.105c-0.439,0.281-1.015,0.563-2.673-0.092
				c-1.658-0.652-1.275-1.805-1.139-2.268C706.613,437.504,709.532,436.01,710.236,436.502z"/>
		</g>
		<g>
			<path fill-rule="evenodd" clip-rule="evenodd" fill="#F28D49" d="M764.074,440.391c0,0.25-0.041,2.414-0.061,2.654
				c0.295,0.102,0.518,0.244,0.467,0.23c-0.051-0.016-0.377-0.037-0.377-0.037s-0.073,0.467-0.119,0.443
				c-0.045-0.023-0.17-0.418-0.215-0.43s-0.264,0.047-0.355,0.021l0.395-0.215c-0.05-0.252-0.313-2.42-0.258-2.43
				C763.605,440.617,764.074,440.391,764.074,440.391z"/>
			<path fill-rule="evenodd" clip-rule="evenodd" fill="#F28D49" d="M766.963,440.387c0,0.25-0.042,2.414-0.061,2.654
				c0.295,0.102,0.517,0.244,0.467,0.23c-0.051-0.016-0.378-0.037-0.378-0.037s-0.073,0.467-0.118,0.443s-0.17-0.418-0.215-0.43
				s-0.264,0.047-0.355,0.021l0.395-0.215c-0.051-0.252-0.313-2.42-0.258-2.43C766.494,440.613,766.963,440.387,766.963,440.387z"/>
			<path fill-rule="evenodd" clip-rule="evenodd" fill="#FDCD4A" d="M767.514,432.193c1.902,0.871,3.221,2.352,3.221,4.959
				c0,2.609-2.611,4.41-5.695,4.41s-5.475-1.801-5.475-4.41c0-2.607,1.318-4.088,3.221-4.959c0.59-0.633,1.431-1.029,2.364-1.029
				S766.924,431.561,767.514,432.193z"/>
			<ellipse fill-rule="evenodd" clip-rule="evenodd" fill="#FFFFFF" cx="762.969" cy="433.918" rx="0.877" ry="0.92"/>
			<ellipse fill-rule="evenodd" clip-rule="evenodd" fill="#2C4844" cx="763.189" cy="433.861" rx="0.305" ry="0.32"/>
			<ellipse fill-rule="evenodd" clip-rule="evenodd" fill="#FFFFFF" cx="767.068" cy="433.899" rx="0.852" ry="0.919"/>
			<ellipse fill-rule="evenodd" clip-rule="evenodd" fill="#2C4844" cx="767.282" cy="433.844" rx="0.298" ry="0.32"/>
			<path fill-rule="evenodd" clip-rule="evenodd" fill="#EC667A" d="M764.724,434.811c0.216-0.465,0.991-0.26,0.999-0.063
				c0.017,0.533-0.357,1.078-0.525,1.074C765.03,435.82,764.701,435.188,764.724,434.811z"/>
			<path fill-rule="evenodd" clip-rule="evenodd" fill="#F59E4D" d="M759.049,434.369c-0.318,0.533-0.045,1.078-0.125,1.012
				c-0.08-0.068-0.545,0.225-0.502,0.652c0.041,0.43,0.563,0.621,0.563,0.621s-0.395,0.824-0.211,1.105
				c0.184,0.283,0.422,0.564,1.113-0.09c0.689-0.654,0.529-1.805,0.474-2.268C760.263,434.602,759.367,433.836,759.049,434.369z"/>
			<path fill-rule="evenodd" clip-rule="evenodd" fill="#F59E4D" d="M771.231,434.168c0.317,0.533,0.044,1.078,0.125,1.01
				c0.079-0.066,0.544,0.227,0.503,0.654c-0.043,0.43-0.564,0.621-0.564,0.621s0.395,0.822,0.211,1.105
				c-0.183,0.281-0.422,0.564-1.111-0.09c-0.691-0.654-0.531-1.807-0.475-2.268C770.018,434.398,770.913,433.635,771.231,434.168z"
				/>
		</g>
	</g>
</g>
</svg>
