<?xml version="1.0" encoding="utf-8"?>
<!-- Generator: Adobe Illustrator 16.0.0, SVG Export Plug-In . SVG Version: 6.00 Build 0)  -->
<!DOCTYPE svg PUBLIC "-//W3C//DTD SVG 1.1//EN" "http://www.w3.org/Graphics/SVG/1.1/DTD/svg11.dtd">
<svg version="1.1" id="Layer_1" xmlns="http://www.w3.org/2000/svg" xmlns:xlink="http://www.w3.org/1999/xlink" x="0px" y="0px"
	 width="302.777px" height="293.056px" viewBox="0 0 302.777 293.056" enable-background="new 0 0 302.777 293.056"
	 xml:space="preserve">
<g>
	<g>
		<circle fill="#041C1D" cx="226.616" cy="195.654" r="23.265"/>
		<path fill="#AFB3B2" d="M241.316,195.654c0,8.119-6.582,14.703-14.7,14.703c-8.122,0-14.702-6.584-14.702-14.703
			s6.58-14.702,14.702-14.702C234.734,180.952,241.316,187.535,241.316,195.654z"/>
		<g>
			<g>
				<path fill="#8B8A95" d="M228.778,186.05c0,1.191-0.968,2.163-2.165,2.163c-1.191,0-2.162-0.972-2.162-2.163
					c0-1.195,0.971-2.161,2.162-2.161C227.811,183.889,228.778,184.854,228.778,186.05z"/>
				<path fill="#8B8A95" d="M228.778,205.262c0,1.191-0.968,2.161-2.165,2.161c-1.191,0-2.162-0.97-2.162-2.161
					c0-1.196,0.971-2.162,2.162-2.162C227.811,203.1,228.778,204.065,228.778,205.262z"/>
			</g>
			<g>
				<path fill="#8B8A95" d="M236.221,197.819c-1.193,0-2.163-0.971-2.163-2.165c0-1.191,0.97-2.163,2.163-2.163
					c1.192,0,2.16,0.972,2.16,2.163C238.381,196.849,237.413,197.819,236.221,197.819z"/>
				<path fill="#8B8A95" d="M217.01,197.819c-1.191,0-2.164-0.971-2.164-2.165c0-1.191,0.973-2.163,2.164-2.163
					c1.195,0,2.162,0.972,2.162,2.163C219.172,196.849,218.205,197.819,217.01,197.819z"/>
			</g>
		</g>
	</g>
	<path fill="#EF4136" d="M233.791,96.906h-37.457h-12.189h-0.078l0.078,17.599v76.384h12.189v-0.012h5.431
		c0,0,2.95-16.433,24.862-16.433s26.129,22.333,26.129,22.333h36.66v-40.875L233.791,96.906z"/>
	<polygon fill="#041C1D" points="189.773,104.041 189.773,130.113 229.176,130.113 231.706,133.367 262.434,133.367 
		235.141,104.085 	"/>
	<path fill="#03122A" d="M212.843,142.946c0,1.496-1.213,2.711-2.712,2.711h-10.35c-1.498,0-2.712-1.215-2.712-2.711l0,0
		c0-1.497,1.214-2.712,2.712-2.712h10.35C211.63,140.234,212.843,141.449,212.843,142.946L212.843,142.946z"/>
	<path fill="#DC2D2B" d="M293.676,186.313c0,2.018-1.635,3.653-3.655,3.653h-15.812c-2.02,0-3.654-1.636-3.654-3.653v-8.373
		c0-2.018,1.635-3.653,3.654-3.653h15.812c2.021,0,3.655,1.636,3.655,3.653V186.313z"/>
	<g>
		<path fill="#ECDAE3" d="M288.292,167.407v-6.819c0-2.019-1.636-3.651-3.655-3.651h-15.812c-2.021,0-3.655,1.633-3.655,3.651v6.819
			c3.712-0.646,7.57-1.023,11.563-1.023C280.723,166.384,284.58,166.762,288.292,167.407z"/>
		<path fill="#E49E48" d="M268.825,172.615h15.812c2.02,0,3.655-1.635,3.655-3.653v-1.555c-3.712-0.646-7.569-1.023-11.56-1.023
			c-3.992,0-7.851,0.378-11.563,1.023v1.555C265.17,170.98,266.805,172.615,268.825,172.615z"/>
	</g>
	<path fill="#4D464C" d="M230.141,113.245c0,4.021-3.261,7.281-7.282,7.281h-21.104c-4.022,0-7.282-3.26-7.282-7.281l0,0
		c0-4.021,3.26-7.281,7.282-7.281h21.104C226.88,105.964,230.141,109.224,230.141,113.245L230.141,113.245z"/>
	<path fill="#DC2D2B" d="M289.667,178.916c0,1.196-0.972,2.169-2.169,2.169h-25.305c-1.197,0-2.169-0.973-2.169-2.169l0,0
		c0-1.197,0.972-2.169,2.169-2.169h25.305C288.695,176.747,289.667,177.719,289.667,178.916L289.667,178.916z"/>
	<path fill="#DC2D2B" d="M254.48,168.673c0,0.998-0.81,1.808-1.808,1.808h-62.658c-0.998,0-1.808-0.81-1.808-1.808l0,0
		c0-0.999,0.81-1.808,1.808-1.808h62.658C253.671,166.865,254.48,167.674,254.48,168.673L254.48,168.673z"/>
	<g>
		<circle fill="#041C1D" cx="53.656" cy="195.654" r="23.266"/>
		<circle fill="#AFB3B2" cx="53.656" cy="195.654" r="14.702"/>
		<g>
			<g>
				<path fill="#8B8A95" d="M55.818,186.05c0,1.191-0.967,2.163-2.165,2.163c-1.192,0-2.162-0.972-2.162-2.163
					c0-1.195,0.97-2.161,2.162-2.161C54.851,183.889,55.818,184.854,55.818,186.05z"/>
				<path fill="#8B8A95" d="M55.818,205.262c0,1.191-0.967,2.161-2.165,2.161c-1.192,0-2.162-0.97-2.162-2.161
					c0-1.196,0.97-2.162,2.162-2.162C54.851,203.1,55.818,204.065,55.818,205.262z"/>
			</g>
			<g>
				<path fill="#8B8A95" d="M63.26,197.819c-1.192,0-2.163-0.971-2.163-2.165c0-1.191,0.971-2.163,2.163-2.163
					c1.194,0,2.162,0.972,2.162,2.163C65.422,196.849,64.455,197.819,63.26,197.819z"/>
				<path fill="#8B8A95" d="M44.05,197.819c-1.192,0-2.163-0.971-2.163-2.165c0-1.191,0.971-2.163,2.163-2.163
					c1.195,0,2.163,0.972,2.163,2.163C46.212,196.849,45.245,197.819,44.05,197.819z"/>
			</g>
		</g>
	</g>
	<path fill="#EF4136" d="M182.096,162.756H13.004v27.423h3.206c-0.394,1.884,9.986,5.772,9.986,5.772
		c1.114-14.482,13.255-25.929,28.017-25.929c14.762,0,26.902,11.446,28.015,25.929h10.791c-0.102-1.842-0.375-3.635-0.725-5.399
		h89.803V162.756z"/>
	<g>
		<path fill="#DC2D2B" d="M182.096,73.129h-14.123c-6.428,16.349-32.307,68.418-106.483,87.028h120.606V73.129z"/>
		<path fill="#EF4136" d="M167.973,73.129H9.78v87.028h51.709C135.666,141.547,161.545,89.478,167.973,73.129z"/>
	</g>
</g>
</svg>
